<svg xmlns="http://www.w3.org/2000/svg" width="37" height="37" viewBox="0 0 37 37">
  <g id="Grupo_3" data-name="Grupo 3" transform="translate(-612 -636.588)">
    <g id="jquery-javascript-icon" transform="translate(612 636.588)">
      <path id="Caminho_16" data-name="Caminho 16" d="M37,31.219A5.781,5.781,0,0,1,31.219,37H5.781A5.781,5.781,0,0,1,0,31.219V5.781A5.781,5.781,0,0,1,5.781,0H31.219A5.781,5.781,0,0,1,37,5.781Z" transform="translate(0 0)" fill="#0769ad"/>
      <path id="Caminho_17" data-name="Caminho 17" d="M146.783,129.56V120.1l-8.242-8.242-.784,1.178.026.026-.235.082L130.4,106l-.163.25.027.027-.257.282-.6,1.923v2.038l-3.5-3.5-.163.25.018.018-.555.755-.52,1.356-.373,3.728-3.942-3.942-.061-.063h0l-.013.02-1.246,1.64-.723,3.745,4.547,8.269-1.6,1.6,10.947,10.947H141A5.781,5.781,0,0,0,146.783,129.56Z" transform="translate(-109.783 -98.341)" fill="#05568d"/>
      <g id="Grupo_2" data-name="Grupo 2" transform="translate(7.66 7.66)">
        <g id="Grupo_1" data-name="Grupo 1" transform="translate(0)">
          <path id="Caminho_18" data-name="Caminho 18" d="M195.253,120.076a6.949,6.949,0,0,0-.5,5.391,8.974,8.974,0,0,0,2.927,4.331l.087.071c.126.1.255.2.387.295.062.042.123.086.186.127.029.02.057.041.086.061.094.062.191.124.288.182.019.012.038.023.056.033.079.048.158.094.237.139l.108.057c.062.033.124.067.188.1.122.063.247.123.373.18l.082.036c.1.044.2.087.306.128l.128.049c.094.035.189.069.284.1l.122.041c.134.043.27.084.406.122a6.672,6.672,0,0,0,7.463-2.464s-1.655,5.728-8.821,4.5a3.037,3.037,0,0,1-.4-.121l-.126-.042c-.094-.033-.187-.065-.281-.1l-.131-.05c-.1-.041-.2-.084-.3-.128l-.082-.035c-.125-.057-.249-.117-.371-.18-.087-.044-.146-.076-.206-.109-.03-.017-.06-.031-.09-.048-.086-.048-.171-.1-.255-.148l-.041-.025c-.1-.058-.193-.12-.288-.183-.028-.018-.056-.038-.084-.057-.059-.04-.119-.079-.177-.121-.145-.1-.273-.2-.4-.3l-.085-.069c-.125-.1-.251-.21-.37-.319s-.231-.217-.335-.321c-.027-.028-.055-.056-.081-.085-.108-.109-.212-.22-.312-.335a5.067,5.067,0,0,1-.715-.926,9.338,9.338,0,0,1-.614-1.064,7.156,7.156,0,0,1,.23-7.042Z" transform="translate(-186.785 -119.059)" fill="#fff"/>
          <path id="Caminho_19" data-name="Caminho 19" d="M108.878,149.166a10.472,10.472,0,0,0,1.185,10.515c.076.109.153.216.234.324l.075.1c.065.087.134.175.2.26l.074.091c.092.113.185.224.281.333s.2.221.292.32l.088.093c.074.078.15.154.227.23l.089.089c.1.1.208.2.316.3.131.117.231.2.333.291l.107.089c.08.067.161.131.242.2l.118.093c.088.068.176.135.266.2.031.021.06.045.092.067.093.066.187.131.282.194.035.025.071.05.107.074.131.086.263.171.4.252l.1.06c.1.06.2.12.3.177.056.033.114.061.17.093.084.044.168.09.255.134l.094.047c.108.055.218.107.329.159l.078.036q.193.087.39.168l.1.041c.12.049.24.094.362.138.191.07.328.116.465.16l.107.034c.14.043.281.089.424.124,3.808.9,7.829.092,10.094-2.971,0,0-2.7,7.548-11.98,5.79a3.656,3.656,0,0,1-.428-.125l-.1-.031c-.138-.045-.277-.091-.414-.141-.172-.062-.3-.11-.419-.159l-.1-.04c-.132-.054-.264-.111-.393-.17l-.072-.033c-.113-.053-.226-.107-.337-.162l-.087-.044c-.121-.062-.191-.1-.262-.139-.055-.029-.111-.057-.165-.088-.1-.056-.2-.114-.3-.173l-.109-.064c-.134-.081-.266-.166-.4-.252l-.109-.076c-.086-.056-.171-.115-.254-.174-.058-.041-.088-.065-.121-.089-.087-.064-.175-.129-.261-.194l-.124-.1c-.078-.062-.155-.124-.232-.189l-.116-.1c-.094-.08-.187-.162-.279-.244l-.054-.047c-.109-.1-.211-.2-.311-.295-.031-.029-.062-.06-.092-.09-.076-.076-.15-.152-.224-.229-.03-.03-.06-.062-.09-.093-.1-.1-.189-.2-.281-.307-.11-.125-.2-.235-.293-.346l-.075-.094c-.068-.084-.133-.168-.2-.252-.026-.036-.054-.072-.081-.108-.072-.1-.145-.2-.213-.3-.013-.019-.027-.036-.041-.055-.086-.125-.165-.243-.242-.362l-.069-.111c-.056-.087-.109-.175-.162-.263l-.08-.138q-.071-.124-.14-.249c-.026-.048-.051-.094-.076-.141-.014-.027-.03-.053-.042-.079-.025-.045-.046-.092-.069-.138-.036-.071-.072-.143-.108-.216-1.466-3.043-1.705-6.768.213-9.632Z" transform="translate(-106.004 -146.047)" fill="#fff"/>
          <path id="Caminho_20" data-name="Caminho 20" d="M268.516,106c-1.132,2.123-.055,4.729,1.681,6.1a5.566,5.566,0,0,0,1.533.858c.148.054.316.112.469.151,1.939.489,3.519.151,4.459-1.254a4.4,4.4,0,0,1-5.317,2.535,2.36,2.36,0,0,1-.256-.077l-.078-.026c-.06-.021-.119-.042-.178-.064a5.765,5.765,0,0,1-3.258-3.161,4.476,4.476,0,0,1,.331-4.183Z" transform="translate(-255.558 -106.001)" fill="#fff"/>
        </g>
      </g>
    </g>
  </g>
</svg>
