<svg xmlns="http://www.w3.org/2000/svg" width="37" height="37" viewBox="0 0 37 37">
  <path id="Caminho_15" data-name="Caminho 15" d="M33.036,32H3.964A3.965,3.965,0,0,0,0,35.964V65.036A3.965,3.965,0,0,0,3.964,69H33.036A3.965,3.965,0,0,0,37,65.036V35.964A3.965,3.965,0,0,0,33.036,32Zm-12.9,28.857c0,3.6-2.114,5.244-5.195,5.244a5.4,5.4,0,0,1-5.22-3.18l2.833-1.71C13.1,62.178,13.594,63,14.792,63c1.14,0,1.867-.446,1.867-2.189V48.989h3.477ZM28.361,66.1a6.673,6.673,0,0,1-6.335-3.551l2.833-1.635a3.794,3.794,0,0,0,3.427,2.114c1.437,0,2.362-.719,2.362-1.718,0-1.189-.942-1.61-2.535-2.312l-.867-.372c-2.511-1.065-4.171-2.412-4.171-5.244,0-2.61,1.99-4.592,5.087-4.592A5.121,5.121,0,0,1,33.1,51.574l-2.709,1.734a2.365,2.365,0,0,0-2.238-1.487,1.509,1.509,0,0,0-1.66,1.487c0,1.041.644,1.462,2.139,2.114l.867.372c2.957,1.264,4.617,2.56,4.617,5.467,0,3.122-2.461,4.84-5.756,4.84Z" transform="translate(0 -32)" fill="#fff700"/>
</svg>
