<svg xmlns="http://www.w3.org/2000/svg" width="37.387" height="37.427" viewBox="0 0 37.387 37.427">
  <g id="Grupo_7" data-name="Grupo 7" transform="translate(-0.586 -0.76)">
    <path id="Caminho_37" data-name="Caminho 37" d="M91.085,26.212V14.073a.783.783,0,0,0-.783-.783H78.178V.76h24.641a.783.783,0,0,1,.783.783V26.212Z" transform="translate(-65.629)" fill="#8e75ff" fill-rule="evenodd"/>
    <path id="Caminho_38" data-name="Caminho 38" d="M12.549.76V13.29H.977A.391.391,0,0,1,.7,12.622ZM25.457,37.8V26.212H37.973L26.125,38.072a.391.391,0,0,1-.668-.277ZM12.549,13.29H25.065a.391.391,0,0,1,.391.391v12.53H13.332a.783.783,0,0,1-.783-.783Z" transform="translate(0 0)" fill="#8e75ff" fill-rule="evenodd" opacity="0.405"/>
  </g>
</svg>
