<svg xmlns="http://www.w3.org/2000/svg" width="36.99" height="36.994" viewBox="0 0 36.99 36.994">
  <g id="Grupo_8" data-name="Grupo 8" transform="translate(-0.025 0)">
    <path id="Caminho_43" data-name="Caminho 43" d="M18.528,0A18.5,18.5,0,1,1,.044,19.354,18.492,18.492,0,0,1,18.528,0Z" transform="translate(0 0)" fill="#3398c2"/>
    <path id="Caminho_44" data-name="Caminho 44" d="M547.554,421.528a6.471,6.471,0,0,1,.518-1.354,1.7,1.7,0,0,1,.982-.878,2.066,2.066,0,0,0,.837-.537,5.055,5.055,0,0,1,3.106-1.5.393.393,0,0,0,.376-.279,5.077,5.077,0,0,1,.707-1.241,1.807,1.807,0,0,1,1.553-.829,1.364,1.364,0,0,1,1.055.554,7.246,7.246,0,0,1,.724,1.258c.069.142.125.194.3.157a1.2,1.2,0,0,1,1.431.731,6.818,6.818,0,0,1,.55,2.183,9.9,9.9,0,0,1-1.754,7.071c-.064.093-.081.154.008.25a7.728,7.728,0,0,1,2.046,5.62v.154a.492.492,0,0,0,.255-.1c.631-.324,1.2-.736,1.84-1.055a6.192,6.192,0,0,1,2.841-.756,1.949,1.949,0,0,1,1.835,2.773,1.732,1.732,0,0,1-1.2,1A8.365,8.365,0,0,0,562.79,436a18.887,18.887,0,0,1-4.573,2.167.985.985,0,0,0-.3.154,3.07,3.07,0,0,1-1.464.53c-1.6.223-3.2.319-4.811.388a3.35,3.35,0,0,1-1.909-.412c-.157-.1-.295-.279-.456-.307s-.336.121-.51.162a3.8,3.8,0,0,1-2.89-.505,1.517,1.517,0,0,1-.753-1.447.609.609,0,0,0-.137-.42,4.625,4.625,0,0,1-.756-2,4.172,4.172,0,0,1,1.212-3.619.44.44,0,0,0,.121-.324,7.712,7.712,0,0,1,1-4.006,8.008,8.008,0,0,1,1.521-1.823.2.2,0,0,0,.049-.3,5.569,5.569,0,0,1-.534-1.327c-.113-.081-.04-.206-.085-.307a1.076,1.076,0,0,0-.024-.231v-.505a.86.86,0,0,0,.02-.226c.018-.037.011-.086.05-.113Z" transform="translate(-535.838 -408.575)" fill="#fefefe"/>
    <path id="Caminho_45" data-name="Caminho 45" d="M759.984,843.465c.032.1-.008.214.052.312-.017.012-.017.093-.04.037a.944.944,0,0,1-.076-.348,3.932,3.932,0,0,1,.064-1.165.594.594,0,0,0,.017.093c0,.037-.008.073-.012.105-.037.069,0,.15-.032.218v.53c.027.069-.008.15.027.218Z" transform="translate(-748.28 -829.44)" fill="#3298c3"/>
    <path id="Caminho_46" data-name="Caminho 46" d="M629.183,501.731a8.513,8.513,0,0,1-.133,1.1c-.04.319-.008.356.316.3a6.26,6.26,0,0,0,2.021-.792,16.829,16.829,0,0,1,2.054-1.119,4.645,4.645,0,0,1,1.747-.376.882.882,0,0,1,.962.74.78.78,0,0,1-.591.91A9.689,9.689,0,0,0,632.3,504a17.936,17.936,0,0,1-4.379,2,.441.441,0,0,0-.166.064,2.038,2.038,0,0,1-1.33.513c-1.362.179-2.733.258-4.107.339a4.693,4.693,0,0,1-1.188-.04c-.631-.125-.9-.36-.994-.878a1.176,1.176,0,0,1,.6-1.209c.049-.032.1-.064.179-.113a2.014,2.014,0,0,1-.614-.562c-.076-.105-.118-.04-.142.049l-.231.878a3.988,3.988,0,0,1-.2.57,1.376,1.376,0,0,1-1.229.849,3.046,3.046,0,0,1-1.641-.331.607.607,0,0,1-.344-.821,2.412,2.412,0,0,1,.319-.6c-.489.1-.7-.186-.873-.53a3.66,3.66,0,0,1-.356-2.373,3.22,3.22,0,0,1,.971-1.649,1.111,1.111,0,0,0,.344-.91,6.409,6.409,0,0,1,2.475-5.393c.15-.125.3-.255.456-.368.1-.069.108-.113.029-.214a4.585,4.585,0,0,1-.942-1.855,2.8,2.8,0,0,1,.486-2.127.454.454,0,0,1,.243-.169,3.434,3.434,0,0,0,1.3-.829,4.016,4.016,0,0,1,3.128-1.2.225.225,0,0,0,.27-.182,6.906,6.906,0,0,1,.711-1.512,1.942,1.942,0,0,1,.4-.476.443.443,0,0,1,.756.118,15.72,15.72,0,0,1,.95,1.872c.073.162.13.218.3.108a3.132,3.132,0,0,1,.643-.292.247.247,0,0,1,.36.166,6.331,6.331,0,0,1,.417,1.7,1.968,1.968,0,0,1,.037.481c-.012.351,0,.7.008,1.06a1.557,1.557,0,0,0-.008.476,7.832,7.832,0,0,1-.663,2.753,13.009,13.009,0,0,1-1.359,2.289c-.2.282-.194.287.064.518a6.759,6.759,0,0,1,2.191,4.229,1.754,1.754,0,0,1,0,.2,1.254,1.254,0,0,0,.008.453,5.881,5.881,0,0,0,0,.676Z" transform="translate(-606.119 -477.357)" fill="#3398c2"/>
    <path id="Caminho_47" data-name="Caminho 47" d="M1490.649,769.433c-.049-.04-.037-.1-.037-.15V768.05c0-.052-.012-.108.037-.15a7.15,7.15,0,0,1,0,1.533Z" transform="translate(-1467.828 -756.176)" fill="#2b95c1"/>
    <path id="Caminho_48" data-name="Caminho 48" d="M1506.2,1523.727a4.821,4.821,0,0,1-.037-.937c0-.064-.024-.137.037-.189A4.418,4.418,0,0,1,1506.2,1523.727Z" transform="translate(-1483.138 -1499.353)" fill="#2693bf"/>
    <path id="Caminho_49" data-name="Caminho 49" d="M762.392,855.518c0-.073-.032-.154.032-.218A.45.45,0,0,1,762.392,855.518Zm.032.748c-.061-.064-.029-.145-.032-.218A.4.4,0,0,1,762.424,856.266Z" transform="translate(-750.721 -842.241)" fill="#3398c2"/>
  </g>
</svg>
