<svg xmlns="http://www.w3.org/2000/svg" width="39" height="39" viewBox="0 0 39 39">
  <g id="Grupo_21" data-name="Grupo 21" transform="translate(0 0.279)">
    <circle id="Elipse_6" data-name="Elipse 6" cx="19.5" cy="19.5" r="19.5" transform="translate(0 -0.279)" fill="#6da544"/>
    <path id="Caminho_76" data-name="Caminho 76" d="M60.515,100.174l15.993,11.785L60.515,123.743,44.522,111.959Z" transform="translate(-41.155 -92.598)" fill="#ffda44"/>
    <circle id="Elipse_7" data-name="Elipse 7" cx="6.734" cy="6.734" r="6.734" transform="translate(12.626 12.626)" fill="#f0f0f0"/>
    <g id="Grupo_20" data-name="Grupo 20" transform="translate(12.628 12.626)">
      <path id="Caminho_77" data-name="Caminho 77" d="M170.35,250.435a11.323,11.323,0,0,0-3.365.509,6.732,6.732,0,0,0,12.246,3.775A11.348,11.348,0,0,0,170.35,250.435Z" transform="translate(-166.985 -244.122)" fill="#0052b4"/>
      <path id="Caminho_78" data-name="Caminho 78" d="M186.972,174.981a6.734,6.734,0,0,0-12.8-3.948,13.881,13.881,0,0,1,12.8,3.948Z" transform="translate(-173.631 -166.957)" fill="#0052b4"/>
    </g>
  </g>
</svg>
