<svg id="Grupo_22" data-name="Grupo 22"
    xmlns="http://www.w3.org/2000/svg" width="39" height="39" viewBox="0 0 39 39">
    <path id="Caminho_79" data-name="Caminho 79" d="M0,34.21A19.507,19.507,0,0,0,12.717,52.5l1.7-18.287-1.7-18.287A19.507,19.507,0,0,0,0,34.21Z" transform="translate(0 -14.71)" fill="#6da544"/>
    <path id="Caminho_80" data-name="Caminho 80" d="M193.238,19.5A19.511,19.511,0,0,0,166.955,1.213V37.787A19.511,19.511,0,0,0,193.238,19.5Z" transform="translate(-154.238)" fill="#d80027"/>
    <circle id="Elipse_8" data-name="Elipse 8" cx="6.783" cy="6.783" r="6.783" transform="translate(5.935 12.717)" fill="#ffda44"/>
    <path id="Caminho_81" data-name="Caminho 81" d="M116.87,211.478v4.239a3.815,3.815,0,0,0,7.63,0v-4.239Z" transform="translate(-107.968 -195.369)" fill="#d80027"/>
    <path id="Caminho_82" data-name="Caminho 82" d="M151.533,247.837a1.273,1.273,0,0,1-1.272-1.272v-1.7H152.8v1.7A1.273,1.273,0,0,1,151.533,247.837Z" transform="translate(-138.815 -226.218)" fill="#f0f0f0"/>
</svg>
