<svg id="Grupo_24" data-name="Grupo 24"
    xmlns="http://www.w3.org/2000/svg" width="39" height="39" viewBox="0 0 39 39">
    <ellipse id="Elipse_9" data-name="Elipse 9" cx="19.454" cy="19.454" rx="19.454" ry="19.454" transform="translate(0 0.092)" fill="#f0f0f0"/>
    <g id="Grupo_23" data-name="Grupo 23" transform="translate(0.664 4.189)">
        <path id="Caminho_83" data-name="Caminho 83" d="M244.87,194.244h20.109a19.294,19.294,0,0,0-.664-5.027H244.87Z" transform="translate(-226.643 -179.006)" fill="#d80027"/>
        <path id="Caminho_84" data-name="Caminho 84" d="M244.87,60.679h17.28a19.372,19.372,0,0,0-4.447-5.027H244.87Z" transform="translate(-226.643 -55.652)" fill="#d80027"/>
        <path id="Caminho_85" data-name="Caminho 85" d="M108.869,460.537a19.79,19.79,0,0,0,12.225-4.189H96.644A19.79,19.79,0,0,0,108.869,460.537Z" transform="translate(-90.033 -425.727)" fill="#d80027"/>
        <path id="Caminho_86" data-name="Caminho 86" d="M11.01,327.809H44.3a19.034,19.034,0,0,0,2.191-5.027H8.819A19.035,19.035,0,0,0,11.01,327.809Z" transform="translate(-8.819 -302.359)" fill="#d80027"/>
    </g>
    <path id="Caminho_87" data-name="Caminho 87" d="M8.927,3.009h1.756L9.049,4.2l.624,1.92L8.04,4.93,6.406,6.116l.539-1.659A19.377,19.377,0,0,0,3.208,8.623H3.77l-1.04.755q-.243.405-.466.823l.5,1.528-.926-.673q-.345.732-.63,1.5l.547,1.684H3.77L2.137,15.424l.624,1.92L1.127,16.157l-.978.711A19.457,19.457,0,0,0,0,19.271H19.271V0A19.18,19.18,0,0,0,8.927,3.009Zm.747,14.335L8.04,16.157,6.406,17.344l.624-1.92L5.4,14.237H7.416l.624-1.92.624,1.92h2.019L9.049,15.424ZM9.049,9.81l.624,1.92L8.04,10.543,6.406,11.73,7.03,9.81,5.4,8.623H7.416L8.04,6.7l.624,1.92h2.019Zm7.536,7.534-1.633-1.187-1.633,1.187.624-1.92-1.634-1.187h2.019l.624-1.92.624,1.92H17.6l-1.634,1.187ZM15.962,9.81l.624,1.92-1.633-1.187L13.319,11.73l.624-1.92L12.309,8.623h2.019l.624-1.92.624,1.92H17.6Zm0-5.614.624,1.92L14.952,4.93,13.319,6.116l.624-1.92L12.309,3.009h2.019l.624-1.92.624,1.92H17.6Z" fill="#0052b4"/>
</svg>
