<svg xmlns="http://www.w3.org/2000/svg"
  xmlns:xlink="http://www.w3.org/1999/xlink" width="31.86" height="31.06" viewBox="0 0 31.86 31.06">
  <defs>
    <radialGradient id="radial-gradient" cx="0.329" cy="0.224" r="0.781" gradientTransform="translate(-0.01 0.01) scale(0.973 0.968)" gradientUnits="objectBoundingBox">
      <stop offset="0" stop-color="#34364e" stop-opacity="0.98"/>
      <stop offset="1" stop-color="#0c0824"/>
    </radialGradient>
  </defs>
  <g id="Grupo_16" data-name="Grupo 16" transform="translate(0 -130.746)">
    <path id="Caminho_72" data-name="Caminho 72" d="M24.8,155.549H54.088v28.485H24.8Z" transform="translate(-23.516 -23.516)" fill="url(#radial-gradient)"/>
    <path id="Caminho_73" data-name="Caminho 73" d="M1.327,132.073H30.533v28.405H1.327ZM0,161.806H31.86v-31.06H0Zm21.479-18.317c-1.049,0-1.407.531-1.407.969,0,.478.239.81,1.646,1.54,2.084,1.009,2.735,1.978,2.735,3.4,0,2.124-1.62,3.265-3.81,3.265a5.776,5.776,0,0,1-2.721-.571c-.093-.04-.106-.106-.106-.212v-1.951c0-.133.066-.173.159-.106a4.928,4.928,0,0,0,2.668.783c1.049,0,1.487-.438,1.487-1.035,0-.478-.305-.9-1.646-1.593-1.885-.9-2.668-1.818-2.668-3.345,0-1.712,1.341-3.133,3.664-3.133a6.105,6.105,0,0,1,2.376.372.294.294,0,0,1,.133.265v1.818c0,.106-.066.173-.2.133a4.485,4.485,0,0,0-2.31-.6Zm-11.417,1.58c.305.027.544.027,1.075.027,1.553,0,3.013-.544,3.013-2.655,0-1.686-1.049-2.535-2.814-2.535-.531,0-1.035.027-1.274.04ZM7.7,138.02c0-.093.186-.159.292-.159.85-.04,2.111-.066,3.425-.066,3.677,0,5.111,2.018,5.111,4.593,0,3.371-2.443,4.818-5.443,4.818-.5,0-.677-.027-1.035-.027v5.1c0,.106-.04.159-.159.159H7.859c-.106,0-.159-.04-.159-.159V138.02Z" fill="#31c5f0"/>
  </g>
</svg>
