<svg id="Grupo_14" data-name="Grupo 14"
  xmlns="http://www.w3.org/2000/svg" width="31.86" height="31.063" viewBox="0 0 31.86 31.063">
  <path id="Caminho_67" data-name="Caminho 67" d="M10,10H39.2V38.408H10Z" transform="translate(-8.673 -8.673)" fill="#2e001e"/>
  <path id="Caminho_68" data-name="Caminho 68" d="M0,0V31.063H31.86V0ZM1.327,1.327h29.2V29.736H1.327Z" fill="#ff2bc2"/>
  <path id="Caminho_69" data-name="Caminho 69" d="M62.344,61.182a1.823,1.823,0,0,0-.77-.133c-1.673,0-2.788,1.288-2.788,3.425,0,2.443,1.142,3.425,2.628,3.425a2.5,2.5,0,0,0,.916-.146V61.182ZM56.4,64.58c0-3.093,1.991-5.509,5.257-5.509a5.887,5.887,0,0,1,.69.027V55.646a.133.133,0,0,1,.133-.133h2.137c.106,0,.133.04.133.106V67.753a9.455,9.455,0,0,0,.066,1.3c0,.093,0,.106-.08.146a7.908,7.908,0,0,1-3.4.77C58.454,69.97,56.4,68.191,56.4,64.58ZM51.87,62.43l3.717,7.208c.066.106.027.212-.08.212H53.2a.26.26,0,0,1-.279-.173q-1.274-2.628-2.6-5.456H50.29c-.8,1.779-1.673,3.717-2.522,5.469a.255.255,0,0,1-.239.146h-2.2c-.133,0-.146-.106-.08-.186l3.637-7L45.365,55.7a.118.118,0,0,1,.093-.2h2.283c.133,0,.2.027.239.146.836,1.766,1.686,3.5,2.482,5.283h.027c.77-1.752,1.62-3.518,2.429-5.257.066-.106.106-.173.239-.173h2.137c.106,0,.146.08.08.2Z" transform="translate(-39.205 -48.132)" fill="#ff2bc2"/>
</svg>
