<svg id="Grupo_5" data-name="Grupo 5"
  xmlns="http://www.w3.org/2000/svg" width="37" height="37" viewBox="0 0 37 37">
  <path id="Caminho_34" data-name="Caminho 34" d="M0,32.229A4.771,4.771,0,0,0,4.771,37H32.229A4.771,4.771,0,0,0,37,32.229V4.771A4.771,4.771,0,0,0,32.229,0H4.771A4.771,4.771,0,0,0,0,4.771V32.229Z" fill="#563d7c"/>
  <path id="Caminho_35" data-name="Caminho 35" d="M77,59.568v-5.24h4.612a7.174,7.174,0,0,1,1.271.11,3.172,3.172,0,0,1,1.083.392,2.092,2.092,0,0,1,.753.784A2.6,2.6,0,0,1,85,56.9a2.37,2.37,0,0,1-.847,2.039,3.541,3.541,0,0,1-2.165.628ZM72.075,50.5V72.9H82.931a11.453,11.453,0,0,0,2.934-.377,7.846,7.846,0,0,0,2.541-1.161,5.718,5.718,0,0,0,1.773-2.024,6.848,6.848,0,0,0-.361-6.526,5.385,5.385,0,0,0-3.091-2.087A5.584,5.584,0,0,0,89,58.877a4.907,4.907,0,0,0,.769-2.824,6.009,6.009,0,0,0-.518-2.636,4.305,4.305,0,0,0-1.459-1.71,6.3,6.3,0,0,0-2.259-.926,13.947,13.947,0,0,0-2.918-.282ZM77,69.074v-6.15h5.365a4.151,4.151,0,0,1,2.573.737,2.9,2.9,0,0,1,.973,2.463,3.079,3.079,0,0,1-.3,1.443,2.368,2.368,0,0,1-.8.894,3.388,3.388,0,0,1-1.161.471,6.587,6.587,0,0,1-1.381.141Z" transform="translate(-61.658 -43.201)" fill="#fff"/>
</svg>
