<svg xmlns="http://www.w3.org/2000/svg" width="37.143" height="44" viewBox="0 0 37.143 44">
  <path id="Caminho_30" data-name="Caminho 30" d="M1.9,41.686c-.755,0-.975-.44-.975-1.1a5.857,5.857,0,0,1,.062-.728c.165-1.139.569-1.791,1.544-1.791.659,0,.981.295.981.83v.261h.654c.007,0,.007-.24.007-.295A1.47,1.47,0,0,0,2.533,37.34C.947,37.34.3,38.2.055,39.89A4.333,4.333,0,0,0,0,40.554c0,1,.392,1.9,1.792,1.9A2.239,2.239,0,0,0,3.858,41.3l-.625-.421a1.466,1.466,0,0,1-1.332.808Zm4.29-3.144c-1.27,0-1.819.652-2,1.949a3.384,3.384,0,0,0-.035.453,1.34,1.34,0,0,0,1.476,1.5c1.27,0,1.826-.68,2.012-1.957a3.733,3.733,0,0,0,.034-.466,1.328,1.328,0,0,0-1.483-1.482Zm.529,1.949c-.137.941-.432,1.229-.989,1.229-.446,0-.665-.185-.665-.741a3.434,3.434,0,0,1,.041-.488c.137-.933.412-1.222.975-1.222.453,0,.679.185.679.748a3.179,3.179,0,0,1-.041.474Zm4.147-3.083-.213,1.26c-.014.11-.007.073.035.176a1.516,1.516,0,0,0-.8-.251c-1.14,0-1.778.516-1.983,1.957a2.817,2.817,0,0,0-.034.46,1.294,1.294,0,0,0,1.448,1.442,1.4,1.4,0,0,0,.961-.219l.068.427h.659l.769-5.253h-.913Zm-.652,4.112a1.575,1.575,0,0,1-.8.227c-.5,0-.638-.261-.638-.679a4.125,4.125,0,0,1,.048-.542c.158-1.091.508-1.284.961-1.284a1.452,1.452,0,0,1,.734.165l-.31,2.114Zm3.57-2.979c-1.256,0-1.846.6-2.046,1.949a3.8,3.8,0,0,0-.035.474,1.338,1.338,0,0,0,1.517,1.483,1.829,1.829,0,0,0,1.737-.954l-.693-.281a1.031,1.031,0,0,1-.94.508c-.508,0-.714-.137-.714-.59a.67.67,0,0,1,.021-.219h2.478c.035-.35.075-.6.075-.8,0-.686-.261-1.566-1.4-1.566Zm.473,1.668h-1.51c.151-.35.4-.892.927-.892a.56.56,0,0,1,.6.642A1.056,1.056,0,0,1,14.258,40.21Zm3.568-1.751.082-.7H15.972l-.082.7H16.4l-.549,3.5h-.509l-.082.7h1.936l.083-.7h-.508l.549-3.5Zm3.933,1.051.247-.7h-.666l-.48.1a1.9,1.9,0,0,0-.975-.3c-.982,0-1.819.474-1.819,1.552a1.146,1.146,0,0,0,.24.711.639.639,0,0,0-.384.541.518.518,0,0,0,.124.325,1.312,1.312,0,0,0-.665,1.138c0,.927.968,1.125,1.709,1.125.933,0,2.046-.213,2.046-1.4,0-.4-.254-.721-.988-.858l-1.325-.248c-.151-.028-.185-.076-.185-.144a.147.147,0,0,1,.165-.158l.089.014a2.712,2.712,0,0,0,.6.062c.954,0,1.805-.412,1.805-1.483a.972.972,0,0,0-.1-.418,1.492,1.492,0,0,0,.329.144h.232Zm-1.887,2.841c.261.048.35.144.35.316,0,.556-.6.625-1.029.625-.659,0-.906-.158-.906-.508a.843.843,0,0,1,.3-.673Zm-.282-1.8c-.4,0-.618-.144-.618-.488a.735.735,0,0,1,.81-.8c.412,0,.611.172.611.508A.716.716,0,0,1,19.59,40.553ZM24.2,38.542a1.888,1.888,0,0,0-1.153.525l-.062-.257h-.755L21.7,42.661h.913l.4-2.921a2.032,2.032,0,0,1,.879-.4c.343,0,.467.166.467.481a3.639,3.639,0,0,1-.021.382L24,42.661h.913l.336-2.482c.014-.116.028-.307.028-.417,0-.653-.309-1.221-1.078-1.221ZM27.01,41.7l.007-.094.4-2.793H25.9l-.1.7h.665c-.055,0-.089.061-.1.117l-.275,1.86a3.221,3.221,0,0,0-.02.351.744.744,0,0,0,.8.824h.467l.1-.7h-.295C27.044,41.961,27.01,41.779,27.01,41.7Zm.59-4.288h-.892c-.055,0-.055-.2-.062-.133l-.124.987c-.007.062-.007.2.048.2h.893c.055,0,.055-.24.062-.3l.124-.762c.007-.069.007.013-.048.013Zm1.862,4.311c-.226,0-.336-.1-.336-.3l.007-.014.288-1.894h1.043l.316-.7H29.516l.213-1.541-.961.307L28.6,38.809h-.556l-.1.7h.645c-.062.35-.124.123-.13.192l-.247,1.661a1.013,1.013,0,0,0-.014.2c0,.652.48.9,1.058.9a1.966,1.966,0,0,0,1.3-.438l-.426-.524a1.1,1.1,0,0,1-.673.224Zm3.35-3.178c-1.256,0-1.846.6-2.045,1.949a3.854,3.854,0,0,0-.034.474,1.338,1.338,0,0,0,1.517,1.483,1.828,1.828,0,0,0,1.737-.954l-.693-.281a1.032,1.032,0,0,1-.941.508c-.508,0-.714-.137-.714-.59a.665.665,0,0,1,.021-.219h2.478c.034-.35.075-.6.075-.8,0-.686-.261-1.566-1.4-1.566Zm.474,1.668h-1.51c.151-.35.4-.892.927-.892a.56.56,0,0,1,.6.642,1.08,1.08,0,0,1-.021.251Zm3.453-1.669a1.431,1.431,0,0,0-.947.483l-.055-.216h-.755l-.529,3.852h.92l.4-2.983a1.6,1.6,0,0,1,.776-.267,3.686,3.686,0,0,1,.473-.006l.117-.8a2.192,2.192,0,0,0-.406-.068ZM13.427,34.649c-2.078-.9-4.022-3.181-4.027-5.516A7.753,7.753,0,0,1,13.015,23a2.767,2.767,0,0,0,.225,2.561,2.421,2.421,0,0,0,2.448.927c2.147-.47,2.246-2.831.973-4.206s-2.476-2.9-2-4.875a5.079,5.079,0,0,1,1.618-2.58c-.592,1.556,1.09,3.09,2.2,3.854a58.9,58.9,0,0,1,5.8,3.882c1.859,1.633,3.233,3.842,2.955,6.4-.3,2.776-2.507,4.707-4.981,5.682C27.483,33.5,32.887,29.439,33,23.639c.092-4.771-3.181-8.443-7.236-10.546l-.212-.116a1.726,1.726,0,0,1,.143.705,2.467,2.467,0,0,0,.068-.468,2.282,2.282,0,0,1-.074.566l.006-.1a2.377,2.377,0,0,1-.3.715l.059-.064a2.545,2.545,0,0,1-4.081.244c-1.739-2.235.036-4.644.285-7.011C21.968,4.6,20.108,1.723,17.8,0c1.27,2.055-.4,4.773-1.742,6.293-1.3,1.473-2.877,2.7-4.31,4.042a35.924,35.924,0,0,0-4.285,4.639C4.934,18.35,3.385,22.6,4.524,26.811s4.785,6.89,8.9,7.838Z" fill="#ee4323"/>
</svg>
