<svg xmlns="http://www.w3.org/2000/svg" width="999.937" height="999.937" viewBox="0 0 999.937 999.937">
  <path id="github-icon" d="M0,499.968Q0,292.95,146.476,146.475T499.969,0Q706.985,0,853.462,146.475T999.937,499.968q0,207.018-146.475,353.493T499.969,999.937q-207.02,0-353.493-146.476T0,499.968Zm54.684,0q0,183.584,130.851,314.434T499.969,945.253q183.582,0,314.433-130.851T945.253,499.968q0-183.582-130.851-314.433T499.969,54.684q-183.584,0-314.434,130.851T54.684,499.968ZM195.3,607.383q-3.906-3.906,0-7.812,7.811-7.812,19.529-5.859t13.671,3.906q13.671,5.859,30.271,26.366T285.138,652.3q46.872,39.06,95.7,5.859a58.49,58.49,0,0,1,12.694-23.437q8.787-9.765,16.6-13.671t27.343-11.718q-64.451-5.859-104.486-22.46t-63.473-41.989q-31.248-35.154-38.084-91.791t8.789-103.509a171.973,171.973,0,0,1,33.2-52.731q-15.624-48.825,5.859-111.321,62.5,3.906,113.274,42.966,97.65-25.389,203.111-1.953,13.671-9.765,41.989-24.413t71.285-16.6q7.812,21.483,10.742,50.778t-2.929,54.684q44.918,46.872,46.871,124.992,0,62.5-21.482,103.509T665.971,587.85q-37.107,17.578-97.65,21.483Q595.664,623,608.358,637.652t16.6,45.9v61.521l1.952,59.566A73.428,73.428,0,0,0,654.255,831q5.858,2.93,3.905,8.789t-15.623,5.859q-33.2,0-52.731-23.437-5.859-9.765-5.859-23.436V705.032q0-15.624-7.812-22.46t-15.624-8.789V796.822q0,33.2,7.812,42.966t9.766,19.53q1.953,1.953-2.93,2.929t-16.6-2.929q-25.389-5.859-35.154-26.366a100.908,100.908,0,0,1-9.765-43.943V667.926H488.25V789.012a107.352,107.352,0,0,1-9.766,44.919q-13.67,27.344-50.777,29.295-5.859-1.953-5.859-3.905,1.953-1.954,11.718-19.53,1.953-3.906,4.883-15.624a113.463,113.463,0,0,0,2.93-27.342V673.785a31.622,31.622,0,0,0-14.648,8.789q-6.836,6.837-6.836,22.46v93.744q0,13.669-5.859,23.436-17.577,23.436-52.73,23.437-13.671,0-15.624-5.859-1.955-3.906.977-6.836a59.469,59.469,0,0,1,8.789-6.836,58.271,58.271,0,0,0,7.812-5.859,35.552,35.552,0,0,0,11.718-15.624q5.859-7.812,2.929-41.013t-.977-42.966q-50.779,17.577-103.51-17.577-15.624-15.624-31.248-44.919-11.718-21.484-46.871-50.779Z" transform="translate(0 0)" fill="#fff"/>
</svg>
