<svg xmlns="http://www.w3.org/2000/svg" width="29.708" height="40.104" viewBox="0 0 29.708 40.104">
  <path id="Caminho_42" data-name="Caminho 42" d="M6.919,14.542a2.493,2.493,0,0,0,.407,1.5,3.875,3.875,0,0,1,.313-1.3,4.174,4.174,0,0,0,1,2.669c.54.595,2.787,1.824,4.3.478a5.864,5.864,0,0,1,.235.665,3.953,3.953,0,0,1-.211,1.981,4.294,4.294,0,0,0,1.088-2.544A1.63,1.63,0,0,0,15.7,16.46a2.252,2.252,0,0,1-2.779-.689c-.759-.877-3.2-3.288-6.505-2.489a8.918,8.918,0,0,1,1.057.321H7.467a1.149,1.149,0,0,0-.548.939ZM9.134,14.4a11.2,11.2,0,0,1,3.515,2.9,2.646,2.646,0,0,1-2.975-.133C8.868,16.57,8.907,15.114,9.134,14.4Zm11.124,3.585a4.267,4.267,0,0,0,1.088,2.544,3.953,3.953,0,0,1-.211-1.981,6.466,6.466,0,0,1,.235-.665c1.511,1.354,3.758.117,4.29-.478a4.218,4.218,0,0,0,1-2.669,3.693,3.693,0,0,1,.313,1.3,2.435,2.435,0,0,0,.407-1.5,1.124,1.124,0,0,0-.548-.924h-.008a6.717,6.717,0,0,1,1.057-.321c-3.311-.8-5.746,1.613-6.505,2.489a2.251,2.251,0,0,1-2.779.689,1.636,1.636,0,0,0,1.66,1.511ZM25.166,14.4c.235.712.266,2.168-.548,2.771a2.615,2.615,0,0,1-2.967.125A11.094,11.094,0,0,1,25.166,14.4ZM14.645,32.484h-2.3a1.006,1.006,0,0,0-.744.227.565.565,0,0,0-.07.634A4.237,4.237,0,0,0,12.6,34.8a1.439,1.439,0,0,0,.924.337,1.162,1.162,0,0,0,.861-.36,5.9,5.9,0,0,0,1.018-1.55.493.493,0,0,0-.07-.532.942.942,0,0,0-.689-.211Zm14.811-7.922a5.664,5.664,0,0,1-1.926,3.421,45.522,45.522,0,0,1-.29-4.885,2.635,2.635,0,0,1,.955-2.043c.2-.117.423-.235.65-.36,1.409-.752,3.163-1.691,3.163-3.421A2.506,2.506,0,0,0,30.8,15.1c-.063-.047-.117-.086-.172-.133a1.13,1.13,0,0,1-.337-.344,6.139,6.139,0,0,1-.133-2.943,4.061,4.061,0,0,0,.924-3.069,2.093,2.093,0,0,0-1.1-1.331,3.687,3.687,0,0,0-1.526-.352,3.138,3.138,0,0,0-.07-.462,2.133,2.133,0,0,1-.07-.634,2.375,2.375,0,0,1,.172-.885,3.946,3.946,0,0,1,2.27-1.378l.963-.188-.634-.744a5.33,5.33,0,0,0-3.624-1.37,6.171,6.171,0,0,0-1.887.305,8.775,8.775,0,0,0-3.867,3.076q-.364-.117-.752-.211a5.04,5.04,0,0,1,.7-3.014s-1.065-.235-2.638,1.19A3.857,3.857,0,0,1,18.88-.3c-2.309.814-2.889,2.059-3.061,3.186-.595-.423-.524-1.808-.564-2.161C14.668.8,12.97,2.44,13.048,4.506c-.157.039-.305.086-.462.133A8.728,8.728,0,0,0,8.719,1.563a7.025,7.025,0,0,0-1.871-.274,5.354,5.354,0,0,0-3.624,1.37l-.634.736.963.188a3.946,3.946,0,0,1,2.27,1.378,2.341,2.341,0,0,1,.172.885,2.425,2.425,0,0,1-.07.634,2.987,2.987,0,0,0-.07.462,3.657,3.657,0,0,0-1.526.352,2.093,2.093,0,0,0-1.1,1.331c-.391,1.425.877,3.014.924,3.069a6.139,6.139,0,0,1-.133,2.943,1.13,1.13,0,0,1-.337.344c-.055.039-.11.086-.172.133A2.517,2.517,0,0,0,2.3,17.29c0,1.73,1.754,2.669,3.163,3.421.235.125.454.243.65.36a2.635,2.635,0,0,1,.955,2.043A45.522,45.522,0,0,1,6.778,28,5.684,5.684,0,0,1,4.852,24.57a5.7,5.7,0,0,0-1.613,5.542,5.3,5.3,0,0,0,3.679,4.282,6.526,6.526,0,0,0,5.268,3.883A7.521,7.521,0,0,0,17.166,39.8h.016a7.551,7.551,0,0,0,4.979-1.526,6.526,6.526,0,0,0,5.268-3.883,5.318,5.318,0,0,0,3.679-4.282,5.742,5.742,0,0,0-1.652-5.55ZM26.051,2.675a4.537,4.537,0,0,1,1.386-.211,5.1,5.1,0,0,1,1.934.391,6.15,6.15,0,0,0-.759.415,4.4,4.4,0,0,0-.72-.063,3.878,3.878,0,0,0-2.247.7,4.818,4.818,0,0,0-1.62,1.754,6.114,6.114,0,0,0-.556-.29c-.125-.063-.243-.117-.368-.172a6.386,6.386,0,0,1,2.951-2.521ZM27.695,4.1a2.906,2.906,0,0,0-.18.251,3.009,3.009,0,0,0-.344,1.393,2.566,2.566,0,0,1-.344,1.331c-.329.063-.634.133-.9.211a5.306,5.306,0,0,0-.822-.877A3.719,3.719,0,0,1,26.16,4.647,2.649,2.649,0,0,1,27.695,4.1Zm-22-.83a4.6,4.6,0,0,0-.759-.415,5.1,5.1,0,0,1,1.934-.391,4.574,4.574,0,0,1,1.386.211A6.511,6.511,0,0,1,11.2,5.188c-.125.055-.251.11-.376.172-.2.094-.384.2-.556.29A4.733,4.733,0,0,0,8.649,3.9a3.9,3.9,0,0,0-2.255-.7,5.335,5.335,0,0,0-.7.07Zm3.5,3.139a4.727,4.727,0,0,0-.822.877c-.266-.07-.571-.149-.9-.211A2.515,2.515,0,0,1,7.13,5.751a3.009,3.009,0,0,0-.344-1.393,2.906,2.906,0,0,0-.18-.251,2.554,2.554,0,0,1,1.526.548A3.667,3.667,0,0,1,9.189,6.409ZM6.668,20.069c-.211-.125-.438-.243-.658-.36-1.166-.626-2.364-1.276-2.364-2.388a1.513,1.513,0,0,1,.7-1.425l.039-.031c.055-.047.11-.094.172-.141a6.164,6.164,0,0,1-.211,1.166,7.251,7.251,0,0,0,1.229-3.468,8.667,8.667,0,0,0-.4-3.366,10.7,10.7,0,0,1-.023,1.127.909.909,0,0,0-.1-.172,3.061,3.061,0,0,1-.736-2.082.92.92,0,0,1,.524-.611,2.647,2.647,0,0,1,1.182-.227,9.024,9.024,0,0,1,2.575.47,19.5,19.5,0,0,1,5.018,2.951.135.135,0,0,0,.031.023l.438.305-.274-.454a10.248,10.248,0,0,0-4.165-3.64,4.445,4.445,0,0,1,1.691-1.182A13.128,13.128,0,0,1,17.15,5.328a13.1,13.1,0,0,1,5.816,1.237,4.355,4.355,0,0,1,1.691,1.182,10.26,10.26,0,0,0-4.157,3.64l-.274.454.438-.305a.135.135,0,0,0,.031-.023,19.273,19.273,0,0,1,5.018-2.951,9.306,9.306,0,0,1,2.575-.47,2.647,2.647,0,0,1,1.182.227A.981.981,0,0,1,30,8.929a2.987,2.987,0,0,1-.736,2.082.715.715,0,0,0-.1.172,10.7,10.7,0,0,1-.023-1.127,8.686,8.686,0,0,0-.4,3.366,7.251,7.251,0,0,0,1.229,3.468,6.165,6.165,0,0,1-.211-1.166c.055.047.117.094.172.141l.039.031a1.522,1.522,0,0,1,.7,1.425c0,1.112-1.206,1.761-2.364,2.388-.227.117-.446.243-.658.36a3.279,3.279,0,0,0-1.5,2.677,51.549,51.549,0,0,0,.266,5.942,9.6,9.6,0,0,1-3.108.532,9.372,9.372,0,0,1-.431-1.025c-.055-.157-1.534-4-2.067-4.869a34.25,34.25,0,0,0,1.84,7.014,6.472,6.472,0,0,0-.916-.055H12.571a7.786,7.786,0,0,0-.916.055,33.741,33.741,0,0,0,1.84-7.014c-.532.877-2.012,4.72-2.067,4.869A9.372,9.372,0,0,1,11,29.22a9.64,9.64,0,0,1-3.108-.532,51.481,51.481,0,0,0,.266-5.942,3.249,3.249,0,0,0-1.487-2.677ZM4.844,31.4c-.947-1.566-.681-4.235-.29-4.626.853,2.693,3.695,3.468,5.824,3.554-.211.329-.407.595-.548.783l-.11.11A2.345,2.345,0,0,0,9.4,33.705,5.3,5.3,0,0,1,4.844,31.4ZM8.422,34.8a14.208,14.208,0,0,0,1.456.188,11.112,11.112,0,0,0,.963,1.808A5.455,5.455,0,0,1,8.422,34.8Zm8.728,3.922c-4.744-.008-6.129-3.585-6.646-5.065a1.776,1.776,0,0,1,.07-1.808,2.458,2.458,0,0,1,1.926-.564h9.3c1.182,0,1.707.305,1.926.564a1.811,1.811,0,0,1,.07,1.808C23.279,35.13,21.894,38.716,17.15,38.723ZM23.459,36.8a11.112,11.112,0,0,0,.963-1.808,14.208,14.208,0,0,0,1.456-.188A5.455,5.455,0,0,1,23.459,36.8Zm6-5.4a5.38,5.38,0,0,1-4.548,2.325,2.342,2.342,0,0,0-.321-2.489,1.5,1.5,0,0,0-.11-.117c-.141-.188-.337-.454-.548-.783,2.129-.094,4.971-.861,5.824-3.554.391.391.658,3.061-.3,4.619ZM17.142,14.417h.016c.994-.008,2.129-1.393,2.129-1.393a4.182,4.182,0,0,1-2.137.65,4.182,4.182,0,0,1-2.137-.65S16.148,14.4,17.142,14.417Zm4.83,18.06h-2.3a.939.939,0,0,0-.7.211.48.48,0,0,0-.07.524,5.584,5.584,0,0,0,1.018,1.511,1.156,1.156,0,0,0,.861.352,1.46,1.46,0,0,0,.924-.329,4.066,4.066,0,0,0,1.072-1.417.539.539,0,0,0-.07-.618,1.026,1.026,0,0,0-.736-.235Z" transform="translate(-2.3 0.3)" fill="#b28e2b"/>
</svg>
