<svg xmlns="http://www.w3.org/2000/svg" width="22.93" height="50.744" viewBox="0 0 22.93 50.744">
  <path id="Caminho_41" data-name="Caminho 41" d="M31.875,38.794l-1.4,2.438-.456,7.949c0,.882-2.8,1.6-6.254,1.6s-6.254-.714-6.254-1.6l-.575-7.87-1.477-2.518C19.545,40.508,27.95,40.449,31.875,38.794ZM12.449,13.688,13.8,26.127c.585-1.982,2.062-4.658,3.965-5.471a1.953,1.953,0,0,1,1.853.089,2.452,2.452,0,0,1,1,1.17c.119.644-.2.9-.446.9-.3,0-.525-.456-.674-.724-.406-.724-1.021-.753-1.675-.278a6.782,6.782,0,0,0-1.695,2.052,11.747,11.747,0,0,0-1.189,2.8,3.526,3.526,0,0,0-.059,1.972.518.518,0,0,0,.486.357c.5,0,1.219-.654,1.566-1A7.528,7.528,0,0,0,18.168,26.4l.515-1.536c.258-.674.981-.555.981,0,0,1.011-.367,1.348-.991,3.439-.575,1.933-.753,2.557-.753,2.557-.069.278-.337.743-.624.743a.283.283,0,0,1-.258-.119,1.3,1.3,0,0,1-.079-.624c.02-.317.624-2.2.724-2.5-.2.218-.406.436-.634.654a3.757,3.757,0,0,1-2.131,1.17,1.209,1.209,0,0,1-.763-.238l.753,7.89c.2.5,3.885,1.695,8.742,1.695s8.554-1.209,8.742-1.695l1.08-9.376a7.832,7.832,0,0,1-1.943,1.467c-.535.228-1.725.377-1.725-.565,0-.515.9-1.467,1.427-2.131a2.008,2.008,0,0,0,.466-.8c0-.287-.595-.218-1.16.248a5.693,5.693,0,0,0-.862.961,7.946,7.946,0,0,0-.842,1.536,23.3,23.3,0,0,0-.9,2.181c-.5,1.318-.416,1.17-.515,1.388a.966.966,0,0,1-.4.446.6.6,0,0,1-.6-.03.421.421,0,0,1-.129-.367,1.23,1.23,0,0,1,.03-.268c.149-.6.773-1.794,1.487-3.4.159-.367.1-.258.079-.228a5.166,5.166,0,0,1-1.427,1.041c-.575.258-1.289.258-1.437-.406-.01-.04-.01-.079-.02-.119-1.17.912-2.409,1.16-1.982-.8a2.644,2.644,0,0,1-2.22,1.477.816.816,0,0,1-.852-.505,4.02,4.02,0,0,1,.456-2.359c.168-.446.4-.981.7-1.606.159-.337.416-.535.753-.446a.767.767,0,0,1,.159.069c.258.178.159.446.03.714a10.862,10.862,0,0,0-.922,2.062c-.089.327-.2.892.149.892a1.146,1.146,0,0,0,.684-.238,4.238,4.238,0,0,0,1.1-1.338,6.768,6.768,0,0,0,.555-1.219,3.376,3.376,0,0,1,.178-.476c.109-.248.258-.505.515-.505a.39.39,0,0,1,.317.149.654.654,0,0,1,.04.684c-.2.555-.466,1.051-.684,1.655a3.656,3.656,0,0,0-.268,1.16c0,.337.367.258.674.119a3.06,3.06,0,0,0,.674-.446c.119-.486.089-.377,2.617-6.76a.651.651,0,0,1,.6-.466.534.534,0,0,1,.317.109.567.567,0,0,1,.1.615c-.069.188-.059.129-.446,1.041-.515,1.2-.852,2.062-1.308,3.162-.188.456-.763,1.873-.862,2.21-.059.218-.129.575.1.575.535,0,1.913-1.3,2.29-1.685a.2.2,0,0,1,.089-.059c.059-.188.119-.367.168-.545a3.745,3.745,0,0,1,.525-1.12.354.354,0,0,1,.268-.159c.278,0,.416.119.416.4a3.333,3.333,0,0,1-.109.615q.208-.223.446-.446c1.487-1.378,2.547-.674,2.547.02,0,.733-.882,1.754-1.368,2.319a3.4,3.4,0,0,0-.5.634c0,.129.089.178.218.178.2,0,.634-.347.793-.466.5-.387,1.17-.981,1.645-1.4l1.467-13.559c-3.023,1.695-19.585,1.7-22.628.02Zm22.767-.842c0,2.081-22.916,2.081-22.916,0,0-.872,5.134-1.576,11.458-1.576.892,0,1.764.01,2.607.04l1.249-4.827L33.689.089c.139-.139.575-.02.981.347s.654.783.525.922l-.01.01-5.679,6L28.515,11.4C32.47,11.656,35.216,12.2,35.216,12.845Zm-6.879.456c0-.079-.089-.149-.248-.208l-.02.079c0,.129-.5.238-1.1.238s-1.1-.109-1.1-.238a.036.036,0,0,1,.01-.03l.02-.069c-.178.059-.3.139-.3.228,0,.208.615.367,1.358.367C27.722,13.678,28.337,13.509,28.337,13.3Z" transform="translate(-12.3 -0.033)" fill="#ab2828"/>
</svg>
