<svg xmlns="http://www.w3.org/2000/svg" width="38.298" height="39.426" viewBox="0 0 38.298 39.426">
  <path id="Caminho_31" data-name="Caminho 31" d="M38.276,8.919a.624.624,0,0,1,.022.161v8.463a.617.617,0,0,1-.31.535l-7.1,4.089v8.105a.619.619,0,0,1-.309.535L15.75,39.343a.663.663,0,0,1-.108.045c-.014,0-.027.013-.042.017a.621.621,0,0,1-.316,0c-.017,0-.032-.014-.049-.02a.641.641,0,0,1-.1-.042L.31,30.808A.618.618,0,0,1,0,30.273V4.885a.631.631,0,0,1,.022-.162c0-.018.015-.034.022-.052a.608.608,0,0,1,.039-.1.577.577,0,0,1,.042-.055A.629.629,0,0,1,.18,4.45.6.6,0,0,1,.241,4.4.5.5,0,0,1,.309,4.35h0L7.721.083a.619.619,0,0,1,.617,0L15.75,4.35h0a.756.756,0,0,1,.068.052.729.729,0,0,1,.06.046.722.722,0,0,1,.056.073.569.569,0,0,1,.042.055.644.644,0,0,1,.04.1c.006.018.017.034.022.052a.624.624,0,0,1,.022.161V20.742l6.176-3.556V9.08a.624.624,0,0,1,.022-.16c.005-.019.015-.035.022-.052a.7.7,0,0,1,.04-.1c.012-.02.029-.036.042-.055a.635.635,0,0,1,.056-.072.593.593,0,0,1,.06-.046.623.623,0,0,1,.068-.053h0l7.413-4.268a.618.618,0,0,1,.617,0l7.412,4.268a.682.682,0,0,1,.069.052c.019.015.042.029.059.046a.722.722,0,0,1,.056.073.466.466,0,0,1,.042.055.611.611,0,0,1,.04.1.442.442,0,0,1,.022.052Zm-1.214,8.267V10.149l-2.594,1.493-3.583,2.063v7.037l6.178-3.556ZM29.65,29.916V22.874l-3.525,2.013L16.06,30.632V37.74ZM1.236,5.954V29.916l13.589,7.823V30.633l-7.1-4.018,0,0,0,0a29.123,29.123,0,0,0-.125-.1l0,0a.588.588,0,0,1-.051-.065.659.659,0,0,1-.046-.06v0a.492.492,0,0,1-.032-.077.457.457,0,0,1-.029-.069h0a.59.59,0,0,1-.012-.09.535.535,0,0,1-.009-.069V9.51L3.829,7.446,1.236,5.954Zm6.8-4.623L1.855,4.885,8.029,8.44,14.2,4.885,8.029,1.331Zm3.212,22.185,3.583-2.062V5.954L12.231,7.447,8.648,9.51v15.5ZM30.268,5.526,24.093,9.08l6.175,3.555L36.442,9.08Zm-.618,8.18-3.583-2.063-2.594-1.493v7.037l3.583,2.062,2.595,1.494ZM15.441,29.564,24.5,24.393l4.527-2.584-6.17-3.553-7.1,4.09L9.276,26.074Z" transform="translate(0 0)" fill="#ff2d20"/>
</svg>
