<svg xmlns="http://www.w3.org/2000/svg"
  xmlns:xlink="http://www.w3.org/1999/xlink" width="60.981" height="26.085" viewBox="0 0 60.981 26.085">
  <defs>
    <linearGradient id="linear-gradient" x1="0.5" x2="0.5" y2="1" gradientUnits="objectBoundingBox">
      <stop offset="0" stop-color="#2e4f82"/>
      <stop offset="1" stop-color="#182e4d"/>
    </linearGradient>
  </defs>
  <g id="Grupo_12" data-name="Grupo 12" transform="translate(16 -0.496)">
    <path id="Caminho_60" data-name="Caminho 60" d="M53.583,21.714a5.084,5.084,0,0,1-5.128,5.008H5.349A5.084,5.084,0,0,1,.221,21.714V5.764A5.084,5.084,0,0,1,5.349.756H48.455a5.084,5.084,0,0,1,5.128,5.008v15.95" transform="translate(-12.357 -0.198)" fill="url(#linear-gradient)"/>
    <path id="Caminho_61" data-name="Caminho 61" d="M-15.94.5H45.027V26.581H-15.94" transform="translate(-0.046)" fill="none"/>
    <path id="Caminho_62" data-name="Caminho 62" d="M88.324,10.009c0-1.953.3-3.1.3-5.207,0-3.254-1.2-4.306-3.855-4.306H82.817V2.8h.6c1.352,0,1.652.451,1.652,2.1,0,1.552-.15,3.1-.15,4.907,0,2.3.751,3.2,2.253,3.555v.15c-1.5.35-2.253,1.252-2.253,3.555,0,1.8.15,3.254.15,4.907,0,1.7-.35,2.153-1.652,2.153v.05h-.6v2.4h1.953c2.653,0,3.855-1.051,3.855-4.306,0-2.153-.3-3.254-.3-5.207,0-1.051.651-2.153,2.6-2.253v-2.6c-1.953-.05-2.6-1.152-2.6-2.2m-22.18,3.054c-1.552-.6-2.954-.951-2.954-1.953,0-.751.6-1.2,1.7-1.2a5.407,5.407,0,0,1,3.2,1.252l2-2.654a8.511,8.511,0,0,0-5.257-1.953c-3.4,0-5.708,1.953-5.708,4.706,0,2.453,2.153,3.7,3.955,4.406,1.552.6,3.054,1.1,3.054,2.1,0,.751-.6,1.252-1.953,1.252a6.269,6.269,0,0,1-3.855-1.552l-1.953,2.9a9.639,9.639,0,0,0,5.707,2.1c4.005,0,6.158-2.1,6.158-4.856s-2.153-3.905-4.105-4.556m12.116,0c-1.5-.6-2.9-.951-2.9-1.953,0-.751.6-1.2,1.7-1.2a5.407,5.407,0,0,1,3.2,1.252l2-2.654a8.511,8.511,0,0,0-5.257-1.953c-3.4,0-5.708,1.953-5.708,4.706,0,2.453,2.153,3.7,3.955,4.406,1.552.6,3.054,1.1,3.054,2.1,0,.751-.6,1.252-1.953,1.252A6.269,6.269,0,0,1,72.5,17.469l-2,2.9a9.64,9.64,0,0,0,5.708,2.1c4.005,0,6.158-2.1,6.158-4.856s-2.153-3.905-4.106-4.556m-29.74-.25c.3-2,1.5-2.954,2.9-2.954,1.8,0,2.5,1.252,2.5,2.954Zm9.212.9c.05-4.056-2.153-7.21-6.359-7.21-3.655,0-7.159,3.054-7.059,7.86,0,4.957,3.254,7.86,7.56,7.86a9.971,9.971,0,0,0,5.357-1.7l-1.5-2.653a6.242,6.242,0,0,1-3.254.951,3.649,3.649,0,0,1-3.955-3.254h9.062a12.932,12.932,0,0,0,.15-1.852Z" transform="translate(-45.946 0)" fill="#faf9f8" fill-rule="evenodd"/>
    <path id="Caminho_63" data-name="Caminho 63" d="M-1.881,18.72c-.35,0-.8-.3-.8-1.252V.5h-7.11C-12.5.5-13.7,1.547-13.7,4.8c0,2.153.3,3.354.3,5.207,0,1.051-.651,2.153-2.6,2.253v2.6c1.953.05,2.6,1.152,2.6,2.2,0,1.853-.3,2.954-.3,5.107,0,3.254,1.2,4.306,3.855,4.306h1.953v-2.3h-.6c-1.252,0-1.652-.5-1.652-2.153s.15-3.054.15-4.907c0-2.3-.751-3.2-2.253-3.555v-.15c1.5-.351,2.253-1.252,2.253-3.555,0-1.8-.15-3.254-.15-4.907s.35-2.1,1.652-2.1h1.352V17.218c0,3.054,1.051,5.057,4.106,5.057A6.631,6.631,0,0,0-.78,21.925l-.5-3.254a3.128,3.128,0,0,1-.6.05" fill="#faf9f8" fill-rule="evenodd"/>
  </g>
</svg>
