<?xml version="1.0" encoding="utf-8"?>
<!-- Generator: Adobe Illustrator 16.0.3, SVG Export Plug-In . SVG Version: 6.00 Build 0)  -->
<!DOCTYPE svg PUBLIC "-//W3C//DTD SVG 1.1//EN" "http://www.w3.org/Graphics/SVG/1.1/DTD/svg11.dtd">
<svg version="1.1" id="Capa_1" xmlns="http://www.w3.org/2000/svg" xmlns:xlink="http://www.w3.org/1999/xlink" x="0px" y="0px"
	 width="481.049px" height="96.305px" viewBox="0 0 481.049 96.305" enable-background="new 0 0 481.049 96.305"
	 xml:space="preserve">
<g id="Layer_x0020_1">
	<g>
		<path fill="#373435" d="M0.369,95.569h41.556v0.736H0.369L0,95.938L0.369,95.569z M0.369,96.304H0v-0.367L0.369,96.304z
			 M0.737,2.479v93.458H0V2.479L0.369,2.11L0.737,2.479z M0,2.479V2.11h0.369L0,2.479z M108.397,2.846H0.369V2.11h108.028
			l0.369,0.369L108.397,2.846z M108.397,2.11h0.369v0.369L108.397,2.11z M108.029,95.937V2.479h0.737v93.458l-0.369,0.367
			L108.029,95.937z M108.766,95.937v0.367h-0.369L108.766,95.937z M67.21,95.569h41.188v0.736H67.21V95.569z"/>
	</g>
	<g>
		<path fill="#213649" d="M54.567,2.479l1.843,12.443h-3.855L54.567,2.479L0.369,95.937h41.556l3.884-28.716h17.519l3.883,28.716
			h41.188L54.567,2.479z M52.271,17.02h4.422l2.154,15.533l-8.674,0.058L52.271,17.02z M47.027,58.236l2.409-20.948h10.063
			l2.864,20.863L47.027,58.236z"/>
	</g>
	<path fill="#213649" d="M126.057,2.479l21.345-0.028v24.236c0.143,5.102,2.098,6.633,8.477,6.688h24.775v11.906h-41.728
		c-12.075,0-12.784-0.737-12.869-8.277V2.479z"/>
	<path fill="#213649" d="M211.522,19.259h23.642v-5.356h-23.642V19.259z M189.978,11.153c0-2.75,1.389-4.933,4.139-6.521
		c2.722-1.587,6.549-2.381,11.367-2.381h35.832c4.848,0,8.645,0.793,11.395,2.381s4.111,3.771,4.111,6.521v34.129h-21.658v-17.32
		h-23.642v17.32h-21.543L189.978,11.153L189.978,11.153z M286.499,21.385h21.26v-7.482h-21.26V21.385z M265.151,45.281V2.251h50.23
		c4.961,0,8.59,0.708,10.857,2.098c2.238,1.417,3.373,3.657,3.373,6.719v11.849c0,2.834-1.135,4.904-3.402,6.293
		s-5.725,2.069-10.402,2.069h-29.055v14.003H265.151z M357.337,19.259h23.67v-5.356h-23.67V19.259z M335.819,11.153
		c0-2.75,1.361-4.933,4.111-6.521s6.547-2.381,11.396-2.381h35.828c4.85,0,8.646,0.793,11.367,2.381
		c2.777,1.587,4.141,3.771,4.141,6.521v34.129h-21.656v-17.32h-23.67v17.32h-21.518V11.153z M431.095,45.281l-25.881-43.03h22.563
		l12.783,23.045c0.482,0.852,0.938,1.729,1.361,2.693c0.426,0.936,0.85,1.983,1.275,3.118c0.426-1.135,0.85-2.184,1.248-3.118
		c0.453-0.964,0.879-1.842,1.332-2.693l12.84-23.045h22.422l-25.879,43.03H431.095z"/>
	<g enable-background="new    ">
		<path fill="#373435" d="M135.357,72.977h-8.848V58.119h3.346v12.143h5.501L135.357,72.977L135.357,72.977z"/>
		<path fill="#373435" d="M150.421,72.977h-3.646l-1.058-3.306h-5.284l-1.046,3.306h-3.626l5.408-14.857h3.968L150.421,72.977z
			 M144.951,67.102l-1.597-4.994c-0.118-0.373-0.2-0.818-0.249-1.336h-0.083c-0.034,0.435-0.12,0.866-0.259,1.295l-1.616,5.035
			H144.951z"/>
		<path fill="#373435" d="M152.277,72.977V58.119h5.407c1.658,0,2.933,0.304,3.823,0.912c0.891,0.607,1.336,1.464,1.336,2.568
			c0,0.803-0.271,1.503-0.813,2.104c-0.543,0.601-1.235,1.019-2.078,1.253v0.042c1.057,0.131,1.9,0.521,2.533,1.171
			c0.631,0.649,0.947,1.44,0.947,2.373c0,1.36-0.486,2.44-1.461,3.237c-0.975,0.798-2.305,1.197-3.989,1.197L152.277,72.977
			L152.277,72.977z M155.623,60.585v3.522h1.471c0.691,0,1.234-0.167,1.632-0.502s0.597-0.796,0.597-1.384
			c0-1.091-0.815-1.637-2.445-1.637H155.623z M155.623,66.594v3.916h1.813c0.773,0,1.38-0.18,1.818-0.539
			c0.438-0.358,0.658-0.85,0.658-1.471c0-0.594-0.217-1.06-0.648-1.398s-1.034-0.508-1.809-0.508H155.623z"/>
		<path fill="#373435" d="M172.158,73.236c-2.127,0-3.861-0.692-5.201-2.077s-2.01-3.189-2.01-5.413c0-2.349,0.68-4.248,2.041-5.698
			c1.36-1.451,3.164-2.176,5.407-2.176c2.12,0,3.835,0.694,5.144,2.083c1.31,1.388,1.964,3.219,1.964,5.491
			c0,2.335-0.679,4.217-2.036,5.646C176.111,72.521,174.34,73.236,172.158,73.236z M172.302,60.751c-1.174,0-2.107,0.44-2.797,1.321
			c-0.691,0.88-1.036,2.046-1.036,3.497c0,1.471,0.345,2.635,1.036,3.492c0.689,0.855,1.596,1.284,2.714,1.284
			c1.153,0,2.069-0.416,2.746-1.249s1.015-1.986,1.015-3.466c0-1.54-0.328-2.737-0.984-3.595
			C174.34,61.179,173.443,60.751,172.302,60.751z"/>
		<path fill="#373435" d="M194.432,72.977h-3.844l-2.31-3.823c-0.174-0.29-0.34-0.549-0.498-0.777
			c-0.16-0.228-0.319-0.423-0.481-0.585c-0.163-0.162-0.332-0.287-0.509-0.373c-0.176-0.086-0.367-0.129-0.574-0.129h-0.9v5.688
			h-3.347V58.12h5.304c3.605,0,5.408,1.347,5.408,4.041c0,0.518-0.079,0.997-0.238,1.435c-0.158,0.438-0.383,0.834-0.673,1.187
			s-0.641,0.656-1.051,0.912c-0.411,0.255-0.869,0.456-1.373,0.601v0.042c0.222,0.069,0.435,0.182,0.644,0.337
			c0.207,0.155,0.406,0.336,0.601,0.544c0.192,0.207,0.378,0.431,0.554,0.668c0.176,0.238,0.337,0.473,0.482,0.699L194.432,72.977z
			 M185.315,60.626v4.134h1.451c0.718,0,1.295-0.207,1.729-0.622c0.442-0.421,0.664-0.942,0.664-1.563
			c0-1.298-0.777-1.948-2.332-1.948H185.315L185.315,60.626z"/>
		<path fill="#373435" d="M208.885,72.977h-3.647l-1.057-3.306h-5.284l-1.046,3.306h-3.626l5.408-14.857h3.968L208.885,72.977z
			 M203.416,67.102l-1.596-4.994c-0.119-0.373-0.201-0.818-0.25-1.336h-0.082c-0.035,0.435-0.121,0.866-0.26,1.295l-1.615,5.035
			H203.416z"/>
		<path fill="#373435" d="M221.172,60.844h-4.237v12.133h-3.355V60.844h-4.217v-2.725h11.811L221.172,60.844L221.172,60.844z"/>
		<path fill="#373435" d="M229.451,73.236c-2.127,0-3.861-0.692-5.201-2.077s-2.01-3.189-2.01-5.413c0-2.349,0.68-4.248,2.041-5.698
			c1.36-1.451,3.164-2.176,5.407-2.176c2.12,0,3.835,0.694,5.144,2.083c1.31,1.388,1.964,3.219,1.964,5.491
			c0,2.335-0.679,4.217-2.036,5.646C233.404,72.521,231.633,73.236,229.451,73.236z M229.595,60.751
			c-1.174,0-2.107,0.44-2.797,1.321c-0.691,0.88-1.036,2.046-1.036,3.497c0,1.471,0.345,2.635,1.036,3.492
			c0.689,0.855,1.596,1.284,2.714,1.284c1.153,0,2.069-0.416,2.746-1.249s1.015-1.986,1.015-3.466c0-1.54-0.328-2.737-0.984-3.595
			C231.633,61.179,230.736,60.751,229.595,60.751z M232.972,53.396l-3.243,3.346h-2.362l2.694-3.346H232.972z"/>
		<path fill="#373435" d="M251.716,72.977h-3.844l-2.313-3.823c-0.172-0.29-0.338-0.549-0.496-0.777
			c-0.16-0.228-0.32-0.423-0.482-0.585s-0.33-0.287-0.508-0.373c-0.176-0.086-0.367-0.129-0.574-0.129h-0.9v5.688h-3.347V58.12
			h5.304c3.605,0,5.408,1.347,5.408,4.041c0,0.518-0.08,0.997-0.238,1.435c-0.158,0.438-0.383,0.834-0.674,1.187
			c-0.289,0.353-0.641,0.656-1.051,0.912c-0.412,0.255-0.869,0.456-1.373,0.601v0.042c0.221,0.069,0.436,0.182,0.643,0.337
			s0.408,0.336,0.602,0.544c0.193,0.207,0.379,0.431,0.555,0.668c0.176,0.238,0.336,0.473,0.48,0.699L251.716,72.977z
			 M242.597,60.626v4.134h1.451c0.717,0,1.295-0.207,1.729-0.622c0.441-0.421,0.664-0.942,0.664-1.563
			c0-1.298-0.777-1.948-2.332-1.948H242.597L242.597,60.626z"/>
		<path fill="#373435" d="M257.692,58.119v2.59h-1.244v9.676h1.244v2.59h-5.834v-2.59h1.244v-9.676h-1.244v-2.59H257.692z"/>
		<path fill="#373435" d="M266.104,73.236c-2.127,0-3.859-0.692-5.201-2.077c-1.34-1.385-2.01-3.189-2.01-5.413
			c0-2.349,0.682-4.248,2.041-5.698c1.361-1.451,3.164-2.176,5.408-2.176c2.121,0,3.836,0.694,5.145,2.083
			c1.311,1.388,1.963,3.219,1.963,5.491c0,2.335-0.678,4.217-2.035,5.646C270.058,72.521,268.288,73.236,266.104,73.236z
			 M266.251,60.751c-1.174,0-2.107,0.44-2.797,1.321c-0.691,0.88-1.037,2.046-1.037,3.497c0,1.471,0.346,2.635,1.037,3.492
			c0.689,0.856,1.596,1.284,2.715,1.284c1.152,0,2.066-0.416,2.744-1.249s1.016-1.986,1.016-3.466c0-1.54-0.328-2.737-0.984-3.595
			C268.29,61.179,267.39,60.751,266.251,60.751z"/>
		<path fill="#373435" d="M281.771,72.977V58.119h5.262c5.277,0,7.916,2.414,7.916,7.242c0,2.313-0.721,4.161-2.158,5.542
			c-1.441,1.382-3.359,2.072-5.758,2.072L281.771,72.977L281.771,72.977z M285.116,60.844v9.417h1.658
			c1.449,0,2.588-0.435,3.414-1.306c0.824-0.87,1.238-2.055,1.238-3.553c0-1.416-0.41-2.53-1.23-3.341
			c-0.818-0.812-1.967-1.218-3.443-1.218H285.116z"/>
		<path fill="#373435" d="M306.323,72.977h-8.908V58.119h8.566v2.725h-5.221v3.306h4.857v2.714h-4.857v3.397h5.563V72.977
			L306.323,72.977z"/>
		<path fill="#373435" d="M317.907,67.859v5.118h-3.348V58.119h5.242c3.744,0,5.615,1.579,5.615,4.735
			c0,1.491-0.537,2.698-1.609,3.62c-1.074,0.923-2.51,1.384-4.307,1.384H317.907z M317.907,60.689v4.631h1.314
			c1.783,0,2.674-0.781,2.674-2.342c0-1.526-0.891-2.29-2.674-2.29L317.907,60.689L317.907,60.689z"/>
		<path fill="#373435" d="M340.659,72.977h-3.646l-1.057-3.306h-5.283l-1.047,3.306h-3.627l5.408-14.857h3.969L340.659,72.977z
			 M335.188,67.102l-1.596-4.994c-0.117-0.373-0.201-0.818-0.248-1.336h-0.084c-0.033,0.435-0.121,0.866-0.258,1.295l-1.617,5.035
			H335.188z"/>
		<path fill="#373435" d="M354.884,58.119l-5.117,14.857h-3.793l-5.055-14.857h3.604l3.1,10.34c0.166,0.561,0.266,1.053,0.301,1.481
			h0.061c0.051-0.462,0.156-0.971,0.322-1.523l3.076-10.298H354.884z"/>
		<path fill="#373435" d="M361.257,58.119v2.59h-1.244v9.676h1.244v2.59h-5.834v-2.59h1.244v-9.676h-1.244v-2.59H361.257z"/>
		<path fill="#373435" d="M380.317,72.977h-3.305v-8.89c0-0.96,0.041-2.021,0.125-3.181h-0.084
			c-0.172,0.912-0.328,1.567-0.465,1.968l-3.482,10.103h-2.734l-3.543-9.998c-0.098-0.27-0.252-0.96-0.467-2.072h-0.094
			c0.09,1.464,0.135,2.749,0.135,3.854v8.217h-3.014V58.119h4.9l3.033,8.807c0.242,0.704,0.418,1.413,0.529,2.124h0.063
			c0.188-0.821,0.385-1.537,0.592-2.145l3.035-8.786h4.775V72.977L380.317,72.977z"/>
		<path fill="#373435" d="M392.606,72.977h-8.91V58.119h8.568v2.725h-5.223v3.306h4.857v2.714h-4.857v3.397h5.563v2.716H392.606z"/>
		<path fill="#373435" d="M408.354,72.977h-3.379l-6.123-9.336c-0.357-0.545-0.605-0.957-0.746-1.232h-0.041
			c0.057,0.524,0.084,1.326,0.084,2.404v8.164h-3.16V58.119h3.605l5.895,9.045c0.27,0.407,0.52,0.813,0.746,1.212h0.041
			c-0.055-0.345-0.082-1.024-0.082-2.041v-8.216h3.16V72.977z"/>
		<path fill="#373435" d="M422.185,60.844h-4.238v12.133h-3.355V60.844h-4.217v-2.725h11.811V60.844L422.185,60.844z"/>
		<path fill="#373435" d="M437.249,72.977h-3.646l-1.057-3.306h-5.283l-1.047,3.306h-3.627l5.408-14.857h3.969L437.249,72.977z
			 M431.778,67.102l-1.596-4.994c-0.117-0.373-0.201-0.818-0.248-1.336h-0.084c-0.033,0.435-0.121,0.866-0.258,1.295l-1.617,5.035
			H431.778z"/>
		<path fill="#373435" d="M449.755,72.448c-1.084,0.524-2.5,0.787-4.248,0.787c-2.279,0-4.072-0.669-5.377-2.011
			c-1.307-1.34-1.959-3.125-1.959-5.355c0-2.376,0.732-4.303,2.203-5.781c1.467-1.478,3.371-2.217,5.713-2.217
			c1.451,0,2.674,0.183,3.668,0.549v3.222c-0.994-0.594-2.127-0.891-3.398-0.891c-1.395,0-2.521,0.438-3.377,1.315
			s-1.285,2.064-1.285,3.563c0,1.438,0.404,2.582,1.211,3.436c0.811,0.853,1.896,1.279,3.266,1.279c1.305,0,2.5-0.317,3.584-0.953
			V72.448L449.755,72.448z M443.724,77.649v-1.431c0.242,0.042,0.49,0.063,0.746,0.063c0.85,0,1.273-0.252,1.273-0.756
			c0-0.456-0.383-0.685-1.148-0.685c-0.09,0-0.219,0.007-0.385,0.021v-1.886h1.781v0.85c1.291,0.055,1.939,0.628,1.939,1.72
			c0,1.431-1.1,2.146-3.295,2.146C444.317,77.691,444.015,77.676,443.724,77.649z"/>
		<path fill="#373435" d="M465.407,72.977h-3.645l-1.059-3.306h-5.283l-1.047,3.306h-3.625l5.406-14.857h3.969L465.407,72.977z
			 M461.804,53.52c0,0.967-0.191,1.715-0.576,2.242c-0.383,0.528-0.906,0.792-1.568,0.792c-0.594,0-1.176-0.147-1.74-0.444
			c-0.615-0.325-1.039-0.487-1.273-0.487c-0.553,0-0.83,0.373-0.83,1.119h-1.461c0-0.96,0.189-1.706,0.57-2.238
			c0.379-0.532,0.912-0.798,1.596-0.798c0.561,0,1.141,0.169,1.74,0.508c0.545,0.304,0.961,0.456,1.244,0.456
			c0.537,0,0.807-0.383,0.807-1.149H461.804z M459.937,67.102l-1.594-4.994c-0.119-0.373-0.201-0.818-0.25-1.336h-0.082
			c-0.035,0.435-0.121,0.866-0.26,1.295l-1.615,5.035H459.937z"/>
		<path fill="#373435" d="M473.542,73.236c-2.127,0-3.861-0.692-5.201-2.077s-2.01-3.189-2.01-5.413
			c0-2.349,0.682-4.248,2.041-5.698c1.359-1.451,3.164-2.176,5.408-2.176c2.119,0,3.834,0.694,5.145,2.083
			c1.309,1.388,1.963,3.219,1.963,5.491c0,2.335-0.678,4.217-2.035,5.646C477.495,72.521,475.724,73.236,473.542,73.236z
			 M473.687,60.751c-1.174,0-2.105,0.44-2.797,1.321c-0.691,0.88-1.037,2.046-1.037,3.497c0,1.471,0.346,2.635,1.037,3.492
			c0.689,0.856,1.596,1.284,2.715,1.284c1.152,0,2.068-0.416,2.744-1.249c0.678-0.833,1.016-1.986,1.016-3.466
			c0-1.54-0.326-2.737-0.982-3.595S474.827,60.751,473.687,60.751z"/>
	</g>
	<g enable-background="new    ">
		<path fill="#373435" d="M133.669,95.908h-7.44V83.503h7.154v2.274h-4.36v2.76h4.058v2.267h-4.058v2.838h4.646V95.908z"/>
	</g>
	<g enable-background="new    ">
		<path fill="#373435" d="M136.486,95.432v-2.769c0.502,0.421,1.047,0.737,1.635,0.947c0.589,0.21,1.183,0.315,1.783,0.315
			c0.352,0,0.658-0.031,0.92-0.095c0.263-0.063,0.481-0.151,0.658-0.264c0.176-0.112,0.307-0.245,0.394-0.398
			c0.086-0.151,0.13-0.317,0.13-0.497c0-0.242-0.069-0.458-0.208-0.648c-0.14-0.19-0.328-0.366-0.567-0.528
			c-0.238-0.161-0.523-0.317-0.852-0.467c-0.329-0.15-0.684-0.303-1.064-0.458c-0.969-0.403-1.691-0.896-2.166-1.479
			c-0.477-0.583-0.715-1.286-0.715-2.11c0-0.646,0.131-1.201,0.389-1.666c0.261-0.465,0.613-0.847,1.061-1.146
			s0.964-0.521,1.553-0.662c0.588-0.141,1.211-0.212,1.869-0.212c0.646,0,1.219,0.039,1.717,0.117
			c0.5,0.078,0.959,0.198,1.381,0.359v2.586c-0.209-0.145-0.435-0.271-0.68-0.382c-0.244-0.108-0.498-0.199-0.757-0.271
			c-0.26-0.072-0.519-0.125-0.774-0.16s-0.5-0.052-0.73-0.052c-0.316,0-0.605,0.03-0.865,0.091
			c-0.259,0.062-0.479,0.146-0.656,0.255c-0.18,0.109-0.317,0.241-0.416,0.395c-0.1,0.152-0.147,0.324-0.147,0.515
			c0,0.208,0.055,0.394,0.165,0.558c0.109,0.165,0.265,0.32,0.467,0.468c0.202,0.146,0.447,0.291,0.734,0.433
			c0.289,0.141,0.615,0.287,0.979,0.437c0.496,0.208,0.941,0.429,1.337,0.662s0.734,0.498,1.017,0.792
			c0.283,0.294,0.498,0.63,0.648,1.009c0.15,0.378,0.225,0.816,0.225,1.318c0,0.692-0.131,1.273-0.394,1.743
			s-0.618,0.851-1.067,1.142c-0.451,0.291-0.975,0.5-1.57,0.627c-0.598,0.128-1.227,0.19-1.891,0.19
			c-0.681,0-1.328-0.058-1.941-0.173C137.468,95.836,136.936,95.663,136.486,95.432z"/>
	</g>
	<g enable-background="new    ">
		<path fill="#373435" d="M157.261,95.466c-0.905,0.438-2.088,0.658-3.547,0.658c-1.903,0-3.4-0.56-4.49-1.678
			c-1.09-1.119-1.635-2.61-1.635-4.474c0-1.983,0.613-3.593,1.838-4.826c1.227-1.234,2.816-1.853,4.771-1.853
			c1.211,0,2.231,0.153,3.063,0.458v2.69c-0.831-0.496-1.775-0.744-2.837-0.744c-1.165,0-2.104,0.367-2.82,1.099
			c-0.715,0.732-1.073,1.725-1.073,2.977c0,1.199,0.338,2.155,1.012,2.867c0.676,0.713,1.584,1.068,2.726,1.068
			c1.091,0,2.088-0.265,2.993-0.796V95.466z"/>
	</g>
	<g enable-background="new    ">
		<path fill="#373435" d="M166.054,96.124c-1.775,0-3.225-0.578-4.343-1.734c-1.119-1.155-1.679-2.662-1.679-4.521
			c0-1.96,0.568-3.547,1.705-4.758c1.135-1.211,2.642-1.817,4.516-1.817c1.771,0,3.201,0.58,4.295,1.739
			c1.093,1.159,1.639,2.688,1.639,4.585c0,1.95-0.566,3.521-1.699,4.715C169.353,95.528,167.876,96.124,166.054,96.124z
			 M166.175,85.699c-0.98,0-1.76,0.368-2.335,1.103c-0.577,0.735-0.865,1.709-0.865,2.92c0,1.229,0.288,2.2,0.865,2.916
			s1.332,1.073,2.267,1.073c0.963,0,1.727-0.348,2.293-1.042c0.564-0.695,0.848-1.66,0.848-2.894c0-1.286-0.274-2.287-0.822-3.002
			C167.876,86.057,167.126,85.699,166.175,85.699z"/>
	</g>
	<g enable-background="new    ">
		<path fill="#373435" d="M183.025,95.908h-7.389V83.502h2.794v10.139h4.595V95.908z"/>
	</g>
	<g enable-background="new    ">
		<path fill="#373435" d="M197.005,95.908h-3.045l-0.883-2.76h-4.412l-0.873,2.76h-3.028l4.517-12.406h3.313L197.005,95.908z
			 M192.437,91.003l-1.332-4.17c-0.098-0.311-0.167-0.683-0.208-1.116h-0.069c-0.028,0.363-0.101,0.725-0.215,1.082l-1.351,4.204
			H192.437z"/>
	</g>
	<g enable-background="new    ">
		<path fill="#373435" d="M214.585,95.908V83.502h4.395c4.406,0,6.609,2.017,6.609,6.047c0,1.933-0.602,3.476-1.805,4.628
			c-1.203,1.153-2.803,1.73-4.806,1.73L214.585,95.908L214.585,95.908z M217.379,85.779v7.863h1.384c1.211,0,2.161-0.362,2.852-1.09
			c0.688-0.727,1.033-1.716,1.033-2.967c0-1.183-0.342-2.112-1.025-2.79s-1.643-1.017-2.875-1.017H217.379z"/>
	</g>
	<g enable-background="new    ">
		<path fill="#373435" d="M236.481,95.908h-7.44V83.502h7.154v2.275h-4.359v2.76h4.058v2.267h-4.058v2.837h4.646V95.908z"/>
	</g>
	<g enable-background="new    ">
		<path fill="#373435" d="M261.964,95.908h-7.439V83.502h7.154v2.275h-4.359v2.76h4.059v2.267h-4.059v2.837h4.646v2.268H261.964z"/>
	</g>
	<g enable-background="new    ">
		<path fill="#373435" d="M276.513,95.908h-2.82l-5.111-7.794c-0.301-0.456-0.51-0.799-0.623-1.03h-0.035
			c0.047,0.438,0.068,1.107,0.068,2.007v6.817h-2.639V83.502h3.012l4.922,7.553c0.227,0.341,0.434,0.679,0.623,1.013h0.035
			c-0.047-0.288-0.068-0.856-0.068-1.704v-6.86h2.639v12.405H276.513z"/>
	</g>
	<g enable-background="new    ">
		<path fill="#373435" d="M290.899,95.077c-1.213,0.698-2.717,1.047-4.518,1.047c-1.994,0-3.568-0.552-4.719-1.657
			c-1.15-1.104-1.727-2.625-1.727-4.563c0-1.949,0.629-3.538,1.887-4.768c1.258-1.229,2.93-1.843,5.018-1.843
			c1.314,0,2.475,0.183,3.479,0.545v2.622c-0.957-0.554-2.129-0.831-3.514-0.831c-1.158,0-2.104,0.376-2.832,1.129
			c-0.73,0.752-1.096,1.758-1.096,3.016c0,1.274,0.328,2.261,0.982,2.959c0.654,0.697,1.537,1.047,2.65,1.047
			c0.67,0,1.199-0.095,1.592-0.286v-2.422h-2.48V88.84h5.275v6.237H290.899z"/>
	</g>
	<g enable-background="new    ">
		<path fill="#373435" d="M302.159,95.908h-7.439V83.502h7.154v2.275h-4.359v2.76h4.057v2.267h-4.057v2.837h4.645V95.908
			L302.159,95.908z"/>
	</g>
	<g enable-background="new    ">
		<path fill="#373435" d="M316.681,95.908h-2.82l-5.113-7.794c-0.301-0.456-0.508-0.799-0.623-1.03h-0.033
			c0.045,0.438,0.068,1.107,0.068,2.007v6.817h-2.639V83.502h3.01l4.924,7.553c0.225,0.341,0.432,0.679,0.621,1.013h0.035
			c-0.047-0.288-0.068-0.856-0.068-1.704v-6.86h2.639V95.908L316.681,95.908z"/>
	</g>
	<g enable-background="new    ">
		<path fill="#373435" d="M331.647,95.908h-2.803v-5.052h-5.139v5.052h-2.795V83.502h2.795v4.949h5.139v-4.949h2.803V95.908z"/>
	</g>
	<g enable-background="new    ">
		<path fill="#373435" d="M346.788,95.908h-3.047l-0.881-2.76h-4.412l-0.875,2.76h-3.025l4.516-12.406h3.313L346.788,95.908z
			 M342.22,91.003l-1.332-4.17c-0.098-0.311-0.166-0.683-0.207-1.116h-0.068c-0.029,0.363-0.102,0.725-0.217,1.082l-1.35,4.204
			H342.22z"/>
	</g>
	<g enable-background="new    ">
		<path fill="#373435" d="M360.147,95.908h-3.211l-1.928-3.192c-0.146-0.242-0.283-0.458-0.416-0.648s-0.268-0.354-0.402-0.489
			c-0.135-0.135-0.275-0.239-0.424-0.312c-0.146-0.071-0.307-0.107-0.479-0.107h-0.754v4.75h-2.795V83.502h4.43
			c3.012,0,4.518,1.125,4.518,3.374c0,0.433-0.066,0.832-0.199,1.198s-0.32,0.696-0.563,0.991c-0.242,0.294-0.535,0.548-0.879,0.761
			c-0.342,0.213-0.727,0.38-1.146,0.501v0.035c0.186,0.058,0.363,0.15,0.537,0.281c0.174,0.13,0.34,0.28,0.502,0.453
			c0.162,0.174,0.316,0.359,0.463,0.559s0.281,0.394,0.402,0.584L360.147,95.908z M352.534,85.596v3.452h1.211
			c0.602,0,1.082-0.173,1.445-0.519c0.369-0.353,0.555-0.787,0.555-1.307c0-1.084-0.65-1.626-1.947-1.626L352.534,85.596
			L352.534,85.596z"/>
	</g>
	<g enable-background="new    ">
		<path fill="#373435" d="M366.526,83.502v2.163h-1.037v8.08h1.037v2.163h-4.869v-2.163h1.037v-8.08h-1.037v-2.163H366.526z"/>
	</g>
	<g enable-background="new    ">
		<path fill="#373435" d="M380.604,95.908h-3.045l-0.883-2.76h-4.412l-0.873,2.76h-3.027l4.516-12.406h3.313L380.604,95.908z
			 M376.038,91.003l-1.332-4.17c-0.1-0.311-0.168-0.683-0.209-1.116h-0.068c-0.029,0.363-0.102,0.725-0.217,1.082l-1.35,4.204
			H376.038z"/>
	</g>
	<g enable-background="new    ">
		<path fill="#373435" d="M402.735,92.136h-4.73v-1.912h4.73V92.136z"/>
	</g>
	<g enable-background="new    ">
		<path fill="#373435" d="M431.513,90.536c0,3.726-1.736,5.588-5.207,5.588c-3.369,0-5.053-1.82-5.053-5.459v-7.163h2.803V90.7
			c0,2.007,0.785,3.011,2.354,3.011c1.539,0,2.311-0.969,2.311-2.907v-7.302h2.795v7.034H431.513z"/>
	</g>
	<g enable-background="new    ">
		<path fill="#373435" d="M442.772,85.779h-4.377v3.045h4.021v2.267h-4.021v4.819h-2.795V83.502h7.172V85.779z"/>
	</g>
	<g enable-background="new    ">
		<path fill="#373435" d="M456.61,95.908h-3.211l-1.928-3.192c-0.146-0.242-0.283-0.458-0.416-0.648s-0.268-0.354-0.402-0.489
			c-0.135-0.135-0.275-0.239-0.424-0.312c-0.146-0.071-0.307-0.107-0.479-0.107h-0.754v4.75h-2.793V83.502h4.428
			c3.012,0,4.518,1.125,4.518,3.374c0,0.433-0.066,0.832-0.199,1.198s-0.32,0.696-0.563,0.991c-0.242,0.294-0.535,0.548-0.879,0.761
			c-0.342,0.213-0.725,0.38-1.146,0.501v0.035c0.186,0.058,0.363,0.15,0.537,0.281c0.174,0.13,0.342,0.28,0.502,0.453
			c0.162,0.174,0.316,0.359,0.463,0.559s0.281,0.394,0.402,0.584L456.61,95.908z M448.997,85.596v3.452h1.211
			c0.602,0,1.082-0.173,1.445-0.519c0.369-0.353,0.555-0.787,0.555-1.307c0-1.084-0.65-1.626-1.947-1.626L448.997,85.596
			L448.997,85.596z"/>
	</g>
	<g enable-background="new    ">
		<path fill="#373435" d="M469.341,95.077c-1.213,0.698-2.717,1.047-4.518,1.047c-1.994,0-3.568-0.552-4.719-1.657
			c-1.15-1.104-1.727-2.625-1.727-4.563c0-1.949,0.629-3.538,1.887-4.768c1.256-1.229,2.93-1.843,5.018-1.843
			c1.314,0,2.475,0.183,3.479,0.545v2.622c-0.957-0.554-2.129-0.831-3.514-0.831c-1.158,0-2.104,0.376-2.832,1.129
			c-0.73,0.752-1.096,1.758-1.096,3.016c0,1.274,0.328,2.261,0.982,2.959c0.654,0.697,1.537,1.047,2.65,1.047
			c0.67,0,1.199-0.095,1.592-0.286v-2.422h-2.482V88.84h5.277v6.237H469.341z"/>
	</g>
	<g enable-background="new    ">
		<path fill="#373435" d="M472.589,95.432v-2.769c0.502,0.421,1.047,0.737,1.635,0.947c0.59,0.21,1.184,0.315,1.783,0.315
			c0.352,0,0.658-0.031,0.922-0.095c0.262-0.063,0.48-0.151,0.656-0.264s0.309-0.245,0.395-0.398
			c0.086-0.151,0.129-0.317,0.129-0.497c0-0.242-0.068-0.458-0.207-0.648s-0.328-0.366-0.566-0.528
			c-0.238-0.161-0.523-0.317-0.852-0.467c-0.33-0.15-0.684-0.303-1.064-0.458c-0.969-0.403-1.691-0.896-2.166-1.479
			c-0.477-0.583-0.715-1.286-0.715-2.11c0-0.646,0.131-1.201,0.391-1.666c0.258-0.465,0.611-0.847,1.059-1.146
			s0.967-0.521,1.555-0.662c0.588-0.141,1.211-0.212,1.867-0.212c0.646,0,1.219,0.039,1.719,0.117
			c0.498,0.078,0.959,0.198,1.379,0.359v2.586c-0.207-0.145-0.436-0.271-0.68-0.382c-0.244-0.108-0.496-0.199-0.758-0.271
			c-0.258-0.072-0.518-0.125-0.773-0.16s-0.5-0.052-0.73-0.052c-0.316,0-0.604,0.03-0.865,0.091
			c-0.26,0.062-0.479,0.146-0.656,0.255c-0.178,0.109-0.316,0.241-0.414,0.395c-0.1,0.152-0.148,0.324-0.148,0.515
			c0,0.208,0.057,0.394,0.164,0.558c0.109,0.164,0.268,0.32,0.469,0.468c0.201,0.146,0.445,0.291,0.734,0.433
			c0.289,0.141,0.615,0.287,0.979,0.437c0.496,0.208,0.941,0.429,1.336,0.662c0.396,0.233,0.734,0.498,1.018,0.792
			s0.498,0.63,0.648,1.009c0.148,0.378,0.225,0.816,0.225,1.318c0,0.692-0.131,1.273-0.393,1.743
			c-0.264,0.47-0.619,0.851-1.068,1.142c-0.451,0.291-0.975,0.5-1.57,0.627c-0.596,0.128-1.229,0.19-1.891,0.19
			c-0.682,0-1.328-0.058-1.941-0.173C473.571,95.836,473.04,95.663,472.589,95.432z"/>
	</g>
</g>
</svg>
