<svg xmlns="http://www.w3.org/2000/svg" width="37" height="37" viewBox="0 0 37 37">
  <g id="Grupo_19" data-name="Grupo 19" transform="translate(-1249 -791)">
    <rect id="Retângulo_8" data-name="Retângulo 8" width="37" height="37" rx="7" transform="translate(1249 791)" fill="#9597aa"/>
    <path id="Caminho_52" data-name="Caminho 52" d="M27,0c-.42.014-.287.135-1.195.358a18.349,18.349,0,0,0-3.023.57C19.835,2.164,19.244,6.387,16.565,7.9c-2,1.131-4.022,1.221-5.838,1.79a10.68,10.68,0,0,0-3.58,2.074c-.839.723-.861,1.36-1.738,2.267-.938.971-3.728.016-4.993,1.5.407.412.586.527,1.389.42-.166.315-1.146.58-.954,1.044.2.488,2.57.818,4.723-.482,1-.605,1.8-1.478,3.363-1.686a25.889,25.889,0,0,1,6.688.51,10.424,10.424,0,0,1-1.6,2.546c-.173.186.347.207.94.095a9.361,9.361,0,0,0,2.64-.945c.989-.576,1.139-2.052,2.352-2.371a2.719,2.719,0,0,0,3.656.453c-1-.283-1.278-2.415-.94-3.354.32-.889.636-2.311.959-3.486a19.156,19.156,0,0,1,.893-3.5,8.269,8.269,0,0,1,1.931-1.845A2.71,2.71,0,0,0,27.6.614c-.006-.4-.214-.626-.6-.614Z" transform="translate(1253.494 800.476)" fill="#002b64"/>
    <path id="Caminho_53" data-name="Caminho 53" d="M5.008,23.144a6.034,6.034,0,0,0,3.7-.534A33.314,33.314,0,0,1,12,20.822c1.817-.583,3.809,0,5.752.117a8.363,8.363,0,0,0,1.407-.022c.723-.445.709-2.108,1.413-2.26a8.021,8.021,0,0,1-1.978,5.086,5.664,5.664,0,0,0,4.223-3.221,11.892,11.892,0,0,0,.675-1.582c.3.232.131.937.283,1.319,1.453-.809,2.284-2.656,2.835-4.523.637-2.161.9-4.35,1.309-4.99a5.444,5.444,0,0,1,1.6-1.409,2.548,2.548,0,0,0,1.325-1.794c-.683-.063-.841-.221-.942-.565a2.037,2.037,0,0,1-1.011.245c-.308.009-.647,0-1.06.038-3.42.351-3.855,4.121-6.047,6.258a5.142,5.142,0,0,1-.514.436,10.784,10.784,0,0,1-2.576,1.312c-1.4.536-2.735.574-4.05,1.036a12.126,12.126,0,0,0-2.74,1.374q-.287.2-.557.415a5.452,5.452,0,0,0-1.066,1.238,8.237,8.237,0,0,1-1.048,1.349c-.727.714-3.442.208-4.4.87a.78.78,0,0,0-.249.268c.522.237.87.092,1.47.158.079.569-1.238.908-1.043,1.17Zm20.72-4.1a4.97,4.97,0,0,0,.755,2.264,2.336,2.336,0,0,1-2.075-.566c.149-.668.924-1.278,1.32-1.7Z" transform="translate(1249.772 794.241)" fill="rgba(255,255,255,0.27)"/>
    <path id="Caminho_54" data-name="Caminho 54" d="M212.468,13.761a.807.807,0,0,0,1.318-.753C213.034,12.945,212.6,13.2,212.468,13.761Zm3.375-.977a2.519,2.519,0,0,0-.375,1.306c0,.118-.09.2-.091.017a2.571,2.571,0,0,1,.373-1.344C215.838,12.606,215.891,12.67,215.843,12.783Z" transform="translate(1063.992 789.154)" fill="#002b64"/>
    <path id="Caminho_55" data-name="Caminho 55" d="M231.062,9.452a3.1,3.1,0,0,0-.578,1.413c-.011.117-.107.19-.092.009a3.168,3.168,0,0,1,.58-1.451C231.072,9.274,231.12,9.343,231.062,9.452Zm-.118-.135a3.675,3.675,0,0,0-.854,1.486c-.021.116-.122.181-.093,0a3.814,3.814,0,0,1,.859-1.524C230.969,9.141,231.01,9.213,230.944,9.317Zm-.105-.15a5.07,5.07,0,0,0-1.088,1.591c-.037.112-.147.162-.092-.012a5.042,5.042,0,0,1,1.1-1.628C230.888,9,230.919,9.073,230.838,9.166Z" transform="translate(1048.644 792.384)" fill="#002b64"/>
  </g>
</svg>
