<svg xmlns="http://www.w3.org/2000/svg" width="37" height="37" viewBox="0 0 37 37">
  <g id="Grupo_71" data-name="Grupo 71" transform="translate(-1297.609 -874.615)">
    <g id="Grupo_70" data-name="Grupo 70" transform="translate(48.609 83.615)">
      <rect id="Retângulo_8" data-name="Retângulo 8" width="37" height="37" rx="7" transform="translate(1249 791)" fill="#9ac183"/>
    </g>
    <g id="Grupo_13" data-name="Grupo 13" transform="translate(1300.109 877.114)">
      <path id="Caminho_64" data-name="Caminho 64" d="M15.9.087l.854,1.6a4.792,4.792,0,0,0,.645.8,22.406,22.406,0,0,1,2,2.266,19.693,19.693,0,0,1,3.12,6.292,15.472,15.472,0,0,1,.662,4.27,15.069,15.069,0,0,1-4.4,11.12,12.7,12.7,0,0,1-1.57,1.342c-.3,0-.436-.227-.558-.436a3.589,3.589,0,0,1-.436-1.255,6.064,6.064,0,0,1-.14-1.586v-.244C16.057,24.21,15.8.21,15.9.087Z" fill="#599636"/>
      <path id="Caminho_65" data-name="Caminho 65" d="M15.9.034c-.035-.07-.07-.017-.1.017a1.611,1.611,0,0,1-.3.96,4.6,4.6,0,0,1-.767.767,16.7,16.7,0,0,0-3.747,4.776,19.186,19.186,0,0,0-2.16,7.808,25.98,25.98,0,0,0,.627,5.508,16.7,16.7,0,0,0,4.375,6.885,19.117,19.117,0,0,0,1.55,1.325c.157,0,.174-.14.21-.244a4.78,4.78,0,0,0,.157-.68l.35-2.614Z" fill="#6cac48"/>
      <path id="Caminho_66" data-name="Caminho 66" d="M16.754,28.845a2.386,2.386,0,0,1,.436-1.063,1.1,1.1,0,0,1-.488-.453,3.235,3.235,0,0,1-.26-.575,9.952,9.952,0,0,1-.366-2.248v-.453a2.173,2.173,0,0,0-.1.75,17.37,17.37,0,0,1-.314,2.353,2.094,2.094,0,0,1-.28.906.347.347,0,0,0,.017.122,10.407,10.407,0,0,1,.453,2.824v.35c0,.418-.017.33.33.47a1.529,1.529,0,0,1,.436.174c.1,0,.122-.087.122-.157l-.052-.575v-1.6a4.242,4.242,0,0,1,.07-.82Z" fill="#c2bfbf"/>
    </g>
  </g>
</svg>
