<svg xmlns="http://www.w3.org/2000/svg" width="37" height="37" viewBox="0 0 37 37">
  <g id="Grupo_73" data-name="Grupo 73" transform="translate(-1129 -874.615)">
    <rect id="Retângulo_8" data-name="Retângulo 8" width="37" height="37" rx="7" transform="translate(1129 874.615)" fill="rgba(255,255,255,0.76)"/>
    <g id="Grupo_9" data-name="Grupo 9" transform="translate(1133.893 880.305)">
      <path id="Caminho_50" data-name="Caminho 50" d="M25.046,20.624a8.552,8.552,0,0,0-3.584.517c-.277.111-.721.111-.758.462.148.148.166.388.3.591a4.331,4.331,0,0,0,.961,1.127c.388.3.776.591,1.182.85.721.443,1.534.7,2.236,1.146.407.258.813.591,1.219.868.2.148.332.388.591.48V26.61c-.129-.166-.166-.407-.3-.591-.185-.185-.37-.351-.554-.536a8.763,8.763,0,0,0-1.921-1.866c-.591-.407-1.885-.961-2.125-1.644l-.037-.037a7.514,7.514,0,0,0,1.275-.3c.628-.166,1.2-.129,1.848-.3.3-.074.591-.166.887-.259V20.92c-.332-.333-.573-.776-.924-1.09a24.634,24.634,0,0,0-3.049-2.273c-.573-.37-1.312-.61-1.922-.924-.222-.111-.591-.166-.72-.351a7.452,7.452,0,0,1-.758-1.423c-.536-1.016-1.053-2.143-1.515-3.215a19.651,19.651,0,0,0-.942-2.106,18.622,18.622,0,0,0-7.15-6.91,8.881,8.881,0,0,0-2.365-.757C6.46,1.853,6,1.816,5.536,1.8a7.351,7.351,0,0,1-.85-.647C3.633.486.917-.955.141.948c-.5,1.2.739,2.383,1.164,2.993a8.7,8.7,0,0,1,.942,1.386c.129.314.166.647.3.979A22.183,22.183,0,0,0,3.5,8.781a8.933,8.933,0,0,0,.684,1.145c.148.2.406.3.462.628a5.292,5.292,0,0,0-.425,1.386,8.139,8.139,0,0,0,.536,6.208c.3.462,1,1.478,1.94,1.09.831-.332.647-1.386.887-2.309.056-.222.019-.37.129-.517v.037c.259.517.517,1.016.757,1.533a10.551,10.551,0,0,0,2.4,2.476c.444.332.795.905,1.349,1.108v-.056h-.037a2.043,2.043,0,0,0-.425-.37,8.958,8.958,0,0,1-.961-1.108A23.772,23.772,0,0,1,8.732,16.67c-.3-.573-.554-1.2-.794-1.774-.111-.222-.111-.554-.3-.665a6.954,6.954,0,0,0-.887,1.256,10.418,10.418,0,0,0-.517,2.79c-.074.019-.037,0-.074.037-.591-.148-.794-.758-1.016-1.275a7.99,7.99,0,0,1-.166-4.933c.129-.388.684-1.607.462-1.977-.111-.351-.481-.554-.684-.831a7.444,7.444,0,0,1-.665-1.182C3.651,7.082,3.43,5.936,2.949,4.9a9.834,9.834,0,0,0-.924-1.423A9.147,9.147,0,0,1,1.009,2.038C.917,1.835.788,1.5.935,1.28a.294.294,0,0,1,.259-.24c.24-.2.924.055,1.164.166a9.417,9.417,0,0,1,1.829.924c.259.185.536.536.868.628h.388c.591.129,1.256.037,1.811.2A11.807,11.807,0,0,1,9.915,4.236a16.391,16.391,0,0,1,5.764,6.319c.222.425.314.813.517,1.256.388.905.868,1.829,1.256,2.716A12.15,12.15,0,0,0,18.764,17c.277.388,1.386.591,1.885.794a13.1,13.1,0,0,1,1.275.517c.628.388,1.256.831,1.848,1.256.3.222,1.219.684,1.275,1.053Z" transform="translate(0 0)" fill="#00546b"/>
      <path id="Caminho_51" data-name="Caminho 51" d="M51.811,43.022a2.928,2.928,0,0,0-.757.092v.037h.037a5.954,5.954,0,0,0,.591.757c.148.3.277.591.425.887l.037-.037a1.042,1.042,0,0,0,.388-.924,4.135,4.135,0,0,1-.222-.388C52.2,43.262,51.959,43.17,51.811,43.022Z" transform="translate(-45.611 -38.453)" fill="#00546b"/>
    </g>
  </g>
</svg>
