<svg xmlns="http://www.w3.org/2000/svg" width="33.247" height="37.5" viewBox="0 0 33.247 37.5">
  <path id="Caminho_23" data-name="Caminho 23" d="M17.316,41.55a2.915,2.915,0,0,1-1.444-.387l-4.591-2.716c-.685-.387-.35-.521-.127-.6a9.044,9.044,0,0,0,2.076-.945.336.336,0,0,1,.342.03L17.1,39.027a.431.431,0,0,0,.424,0L31.268,31.1a.441.441,0,0,0,.208-.372V14.858a.443.443,0,0,0-.216-.38L17.525,6.554a.431.431,0,0,0-.424,0L3.371,14.486a.434.434,0,0,0-.216.38V30.723a.411.411,0,0,0,.216.365L7.137,33.26c2.046,1.019,3.3-.179,3.3-1.392V16.213a.394.394,0,0,1,.4-.394h1.741a.4.4,0,0,1,.4.394V31.876c0,2.723-1.488,4.286-4.07,4.286A5.844,5.844,0,0,1,5.745,35.3l-3.6-2.076A2.894,2.894,0,0,1,.7,30.716V14.858a2.9,2.9,0,0,1,1.444-2.508L15.873,4.418a3.013,3.013,0,0,1,2.887,0L32.5,12.358a2.894,2.894,0,0,1,1.444,2.508V30.723A2.912,2.912,0,0,1,32.5,33.231L18.76,41.163A2.894,2.894,0,0,1,17.316,41.55ZM28.411,25.916c0-2.969-2.009-3.758-6.228-4.316-4.271-.566-4.7-.856-4.7-1.853,0-.826.365-1.927,3.527-1.927,2.82,0,3.862.61,4.294,2.515a.4.4,0,0,0,.387.313h1.786a.388.388,0,0,0,.29-.127.414.414,0,0,0,.1-.305c-.275-3.282-2.456-4.807-6.861-4.807-3.922,0-6.258,1.652-6.258,4.428,0,3.006,2.329,3.84,6.087,4.212,4.5.439,4.852,1.1,4.852,1.987,0,1.533-1.235,2.188-4.13,2.188-3.639,0-4.435-.915-4.7-2.723a.394.394,0,0,0-.394-.335H14.682a.392.392,0,0,0-.394.394c0,2.314,1.258,5.075,7.278,5.075,4.346-.007,6.846-1.726,6.846-4.718Z" transform="translate(-0.7 -4.05)" fill="#08b425"/>
</svg>
