<svg id="Grupo_6" data-name="Grupo 6" xmlns="http://www.w3.org/2000/svg" width="37.869" height="19.713" viewBox="0 0 37.869 19.713">
  <ellipse id="Elipse_5" data-name="Elipse 5" cx="18.935" cy="9.856" rx="18.935" ry="9.856" transform="translate(0 0)" fill="#8993be"/>
  <path id="Caminho_36" data-name="Caminho 36" d="M35.945,29.886l2.075-10.5h4.8c2.075.13,3.113,1.167,3.113,2.983a4.589,4.589,0,0,1-4.669,4.8H38.928l-.519,2.723Zm3.5-4.669.649-3.891h1.686c.908,0,1.556.389,1.556,1.167-.13,2.2-1.167,2.594-2.334,2.724H39.447Zm6,1.945,2.075-10.5h2.464l-.519,2.723H51.8c2.075.13,2.853,1.167,2.594,2.464l-.908,5.317H50.9l.908-4.8c.13-.649.13-1.038-.778-1.038H49.08l-1.167,5.836Zm7.875,2.723,2.075-10.5h4.8c2.075.13,3.113,1.167,3.113,2.983a4.589,4.589,0,0,1-4.669,4.8H56.306l-.519,2.723Zm3.5-4.669.649-3.891h1.686c.908,0,1.556.389,1.556,1.167-.13,2.2-1.167,2.594-2.334,2.724H56.825Z" transform="translate(-30.628 -14.194)" fill="#232531" fill-rule="evenodd"/>
</svg>
