<svg xmlns="http://www.w3.org/2000/svg" width="37" height="37" viewBox="0 0 37 37">
  <g id="Grupo_72" data-name="Grupo 72" transform="translate(-1176.117 -880.305)">
    <path id="Caminho_130" data-name="Caminho 130" d="M7,0H30a7,7,0,0,1,7,7V30a7,7,0,0,1-7,7H7a7,7,0,0,1-7-7V7A7,7,0,0,1,7,0Z" transform="translate(1176.117 880.305)" fill="rgba(41,139,219,0.76)"/>
    <g id="Grupo_11" data-name="Grupo 11" transform="translate(1180.692 884.39)">
      <path id="Caminho_56" data-name="Caminho 56" d="M27.481,17.2a1.383,1.383,0,0,0-1.148-.925,2.629,2.629,0,0,0-.916.051,8.233,8.233,0,0,1-1.411.185,27.222,27.222,0,0,0,2.882-6.855c.956-3.7.445-5.389-.152-6.152A8.269,8.269,0,0,0,20.069.365,11.815,11.815,0,0,0,16.6.851,12.9,12.9,0,0,0,14.576.665a6.589,6.589,0,0,0-3.53.87A16.1,16.1,0,0,0,8.552.909a7.721,7.721,0,0,0-5.84.927C.972,3.065.166,5.2.315,8.184a36.481,36.481,0,0,0,1.411,6.561,22.66,22.66,0,0,0,1.519,3.877A4.8,4.8,0,0,0,5.7,21.181a2.411,2.411,0,0,0,2.387-.518,2.088,2.088,0,0,0,.5.432,3.34,3.34,0,0,0,.947.4,5.087,5.087,0,0,0,3.311-.2c.006.172.011.336.014.478.006.23.013.456.021.667a11.682,11.682,0,0,0,.442,3.314c.016.043.037.108.059.177a3.989,3.989,0,0,0,.994,1.751,2.966,2.966,0,0,0,2.1.78,4.714,4.714,0,0,0,.981-.109,4.609,4.609,0,0,0,3.1-1.793c.814-1.159,1.21-2.9,1.281-5.655.009-.078.018-.152.026-.223l.017-.145.192.017.049,0a7.589,7.589,0,0,0,3.174-.55c.633-.294,2.663-1.366,2.185-2.812" transform="translate(0)"/>
      <path id="Caminho_57" data-name="Caminho 57" d="M35.528,27.353c-3.174.655-3.392-.42-3.392-.42,3.351-4.973,4.752-11.285,3.543-12.829-3.3-4.214-9.007-2.221-9.1-2.169l-.031.006a11.32,11.32,0,0,0-2.118-.221,5.23,5.23,0,0,0-3.352,1S10.891,8.527,11.365,18c.1,2.015,2.888,15.248,6.213,11.251,1.215-1.462,2.39-2.7,2.39-2.7a3.082,3.082,0,0,0,2.013.514l.057-.048a2.218,2.218,0,0,0,.023.569c-.857.957-.6,1.125-2.317,1.477-1.733.357-.715.993-.05,1.159a3.52,3.52,0,0,0,3.929-1.276l-.05.2c.336.269.571,1.748.532,3.09a8.511,8.511,0,0,0,.2,2.982c.265.719.528,2.338,2.779,1.856a3.319,3.319,0,0,0,2.991-3.19c.1-1.239.314-1.056.328-2.163l.175-.524c.2-1.679.032-2.221,1.191-1.969l.282.025a6.419,6.419,0,0,0,2.624-.442c1.411-.655,2.247-1.748.856-1.461h0" transform="translate(-9.872 -9.874)" fill="#336791"/>
      <path id="Caminho_58" data-name="Caminho 58" d="M101.54,79.747a.985.985,0,0,0-.676.1.248.248,0,0,0-.1.165.482.482,0,0,0,.117.316.884.884,0,0,0,.561.35.638.638,0,0,0,.09.006.728.728,0,0,0,.689-.469c.035-.249-.327-.415-.678-.464m9.475.008c-.027-.2-.375-.251-.705-.205s-.649.195-.622.391a.669.669,0,0,0,.622.412.6.6,0,0,0,.083-.006.8.8,0,0,0,.453-.248.5.5,0,0,0,.17-.344" transform="translate(-89.74 -70.72)" fill="#fff"/>
      <path id="Caminho_59" data-name="Caminho 59" d="M33.1,23.659c-.121-.366-.511-.484-1.158-.35-1.922.4-2.61.122-2.836-.045A26.422,26.422,0,0,0,32.5,15.673a14.425,14.425,0,0,0,.5-3.265,3.526,3.526,0,0,0-.511-2.205,7.509,7.509,0,0,0-6.071-2.835,10.4,10.4,0,0,0-3.509.553,8.748,8.748,0,0,0-1.975-.254,5.7,5.7,0,0,0-3.384.933,15.1,15.1,0,0,0-2.75-.721,7,7,0,0,0-5.261.808c-1.507,1.068-2.2,2.977-2.068,5.673a35.616,35.616,0,0,0,1.378,6.371c1.074,3.518,2.241,5.51,3.469,5.919a1.554,1.554,0,0,0,.492.081,2.057,2.057,0,0,0,1.569-.889q1.046-1.254,2.162-2.447a3.484,3.484,0,0,0,1.556.418c0,.014,0,.028,0,.042q-.14.167-.274.339c-.376.477-.454.577-1.664.826-.344.071-1.258.259-1.272.9-.015.7,1.081.994,1.205,1.025a5.162,5.162,0,0,0,1.253.163,3.647,3.647,0,0,0,2.51-.937,23.759,23.759,0,0,0,.383,5.7A2.864,2.864,0,0,0,22.98,33.99a4.394,4.394,0,0,0,.92-.1,3.475,3.475,0,0,0,3.167-3.223c.178-1.029.483-3.487.626-4.806a3.873,3.873,0,0,0,1.114.138,6.628,6.628,0,0,0,2.528-.482c.714-.332,2-1.146,1.769-1.853ZM28.4,14.75a8,8,0,0,1-.117,1.111,10.265,10.265,0,0,0-.14,1.3,9.894,9.894,0,0,0,.1,1.475,5.255,5.255,0,0,1-.23,3,3.9,3.9,0,0,1-.208-.428c-.058-.142-.185-.369-.361-.683-.683-1.225-2.282-4.093-1.464-5.263.244-.348.863-.707,2.416-.514ZM26.514,8.156a6.641,6.641,0,0,1,5.353,2.532c.978,1.25-.1,6.937-3.217,11.843l-.095-.119-.039-.049a5.543,5.543,0,0,0,.508-3.814,9.147,9.147,0,0,1-.1-1.356,9.606,9.606,0,0,1,.131-1.21,7.642,7.642,0,0,0,.123-1.5.621.621,0,0,0,.013-.211,8.411,8.411,0,0,0-1.918-3.608,8.641,8.641,0,0,0-3.05-2.293,10.283,10.283,0,0,1,2.288-.215ZM13.773,25.341c-.63.757-1.064.612-1.207.564-.932-.311-2.013-2.28-2.966-5.4a35.293,35.293,0,0,1-1.345-6.181c-.12-2.41.464-4.089,1.736-4.991,2.071-1.469,5.476-.59,6.844-.144-.02.019-.04.038-.06.057-2.245,2.267-2.192,6.141-2.186,6.378,0,.091.007.221.018.4a16.027,16.027,0,0,1-.082,3.237A4.094,4.094,0,0,0,15.6,22.684q.133.139.279.263c-.385.412-1.221,1.323-2.11,2.393Zm2.4-3.2a3.313,3.313,0,0,1-.868-2.774,16.755,16.755,0,0,0,.088-3.393c-.006-.095-.011-.178-.014-.244a4.32,4.32,0,0,1,2.932-.857,1.193,1.193,0,0,1,.921,1.029c.648,3,.086,4.249-.366,5.254-.093.207-.181.4-.256.6l-.058.156a10.254,10.254,0,0,0-.37,1.112,2.8,2.8,0,0,1-2.008-.89Zm.114,4.045a1.739,1.739,0,0,1-.525-.226,2.563,2.563,0,0,1,.559-.166c1.423-.293,1.643-.5,2.123-1.109.11-.14.235-.3.408-.491h0c.257-.288.375-.239.588-.151a.832.832,0,0,1,.41.527.587.587,0,0,1-.05.493A3.112,3.112,0,0,1,16.286,26.185Zm7.449,6.932a2.12,2.12,0,0,1-2.764-1.531,31.24,31.24,0,0,1-.3-6.878.393.393,0,0,0-.017-.125,1.648,1.648,0,0,0-.049-.231,1.594,1.594,0,0,0-.865-1.037,1.22,1.22,0,0,0-.8-.1,9.62,9.62,0,0,1,.343-1.026l.059-.157c.066-.177.149-.361.236-.556.473-1.051,1.121-2.491.418-5.743a2.051,2.051,0,0,0-2.476-1.675,5.715,5.715,0,0,0-1.9.59c-.078.04-.15.078-.217.115a8.274,8.274,0,0,1,1.925-4.972,4.728,4.728,0,0,1,3.583-1.34,7.594,7.594,0,0,1,5.8,2.773,8.806,8.806,0,0,1,1.588,2.723c-1.468-.149-2.466.14-2.972.864-1.1,1.574.6,4.629,1.421,6.1.15.269.28.5.32.6a5.452,5.452,0,0,0,.864,1.392c.077.1.152.19.209.272-.445.128-1.243.424-1.17,1.9-.059.743-.476,4.221-.688,5.449-.28,1.623-.877,2.228-2.557,2.588ZM31,24.8a5.735,5.735,0,0,1-1.938.4,2.431,2.431,0,0,1-1.3-.167c-.045-.923.3-1.019.662-1.121.057-.016.113-.032.167-.05a1.358,1.358,0,0,0,.11.081c.642.423,1.786.469,3.4.136l.018,0A4.35,4.35,0,0,1,31,24.8Z" transform="translate(-6.392 -6.255)" fill="#fff"/>
    </g>
  </g>
</svg>
