<svg xmlns="http://www.w3.org/2000/svg" width="36.583" height="32.012" viewBox="0 0 36.583 32.012">
  <path id="Caminho_21" data-name="Caminho 21" d="M29.881,42.386q-.579-.193-1.158-.364c.064-.264.121-.529.179-.793.879-4.259.3-7.681-1.651-8.81-1.879-1.079-4.944.043-8.045,2.744-.307.264-.607.543-.893.822-.193-.186-.393-.372-.593-.55-3.251-2.887-6.509-4.1-8.46-2.965-1.872,1.086-2.429,4.309-1.643,8.338.079.4.164.793.264,1.193-.457.129-.907.272-1.329.422C2.737,43.744,0,45.83,0,47.988c0,2.229,2.915,4.466,6.881,5.823.322.107.643.214.972.307-.107.429-.2.85-.286,1.286-.75,3.966-.164,7.109,1.708,8.188,1.929,1.115,5.173-.029,8.331-2.794.25-.222.5-.45.75-.693.314.307.643.6.972.886,3.058,2.629,6.081,3.694,7.945,2.615,1.929-1.115,2.558-4.494,1.743-8.61q-.1-.472-.214-.965c.229-.064.45-.136.672-.207,4.123-1.365,7.109-3.573,7.109-5.838C36.583,45.823,33.768,43.722,29.881,42.386ZM20.214,36.32c2.658-2.315,5.137-3.222,6.266-2.572,1.208.693,1.672,3.494.915,7.174-.05.243-.1.479-.164.715a36.577,36.577,0,0,0-4.809-.757,36.1,36.1,0,0,0-3.044-3.794C19.656,36.82,19.928,36.57,20.214,36.32ZM11.947,51.7c.364.622.736,1.243,1.129,1.851a32.353,32.353,0,0,1-3.315-.536,33.377,33.377,0,0,1,1.165-3.18c.329.629.664,1.25,1.022,1.865ZM9.782,43.1c1.029-.229,2.122-.414,3.258-.557-.379.593-.75,1.2-1.1,1.815s-.693,1.229-1.015,1.858c-.45-1.065-.829-2.108-1.143-3.115Zm1.958,4.923c.472-.986.986-1.951,1.529-2.9s1.129-1.872,1.743-2.779c1.072-.079,2.165-.121,3.28-.121s2.215.043,3.28.121q.911,1.35,1.736,2.765T24.858,48q-.718,1.479-1.543,2.915c-.543.95-1.122,1.872-1.729,2.787-1.065.079-2.172.114-3.294.114s-2.208-.036-3.258-.1q-.932-1.361-1.758-2.787c-.55-.95-1.057-1.915-1.536-2.9Zm12.9,3.658c.364-.629.707-1.265,1.043-1.908a33.167,33.167,0,0,1,1.208,3.165,31.384,31.384,0,0,1-3.358.572C23.922,52.911,24.286,52.3,24.644,51.682Zm1.029-5.466c-.336-.629-.679-1.258-1.036-1.872s-.715-1.208-1.093-1.8a32.882,32.882,0,0,1,3.28.572A31.621,31.621,0,0,1,25.672,46.216Zm-7.367-8.038a31.375,31.375,0,0,1,2.115,2.558c-1.415-.064-2.837-.064-4.251,0C16.87,39.814,17.591,38.957,18.306,38.178ZM10.017,33.8c1.2-.7,3.866.3,6.674,2.787.179.157.357.329.543.5a36.3,36.3,0,0,0-3.065,3.794,37.664,37.664,0,0,0-4.8.743c-.093-.364-.171-.736-.25-1.107-.672-3.458-.229-6.066.9-6.716ZM8.267,52.632c-.3-.086-.593-.179-.886-.279a14.573,14.573,0,0,1-4.5-2.229,3.206,3.206,0,0,1-1.343-2.136c0-1.308,2.258-2.98,5.516-4.116.407-.143.822-.272,1.236-.393a37.994,37.994,0,0,0,1.751,4.544A39.057,39.057,0,0,0,8.267,52.632Zm8.331,7a13.078,13.078,0,0,1-4.03,2.522,3.163,3.163,0,0,1-2.522.093c-1.136-.657-1.608-3.18-.965-6.574.079-.4.164-.8.264-1.193a35.743,35.743,0,0,0,4.852.7A37.706,37.706,0,0,0,17.284,59c-.229.222-.457.436-.686.636ZM18.349,57.9c-.729-.786-1.458-1.658-2.165-2.594.686.029,1.393.043,2.108.043.736,0,1.458-.014,2.172-.05A30.812,30.812,0,0,1,18.349,57.9Zm9.339,2.144a3.176,3.176,0,0,1-1.179,2.236c-1.136.657-3.558-.2-6.173-2.444-.3-.257-.6-.536-.907-.822a35.346,35.346,0,0,0,3.015-3.83,35.221,35.221,0,0,0,4.873-.75c.071.293.136.586.193.872a13.025,13.025,0,0,1,.179,4.737Zm1.3-7.681c-.2.064-.4.129-.607.186a36.3,36.3,0,0,0-1.822-4.559,36.116,36.116,0,0,0,1.751-4.494c.372.107.729.222,1.072.336,3.33,1.143,5.666,2.844,5.666,4.144C35.047,49.374,32.553,51.182,28.988,52.361Zm-10.7-1.072a3.272,3.272,0,1,0-3.272-3.272A3.272,3.272,0,0,0,18.292,51.289Z" transform="translate(0 -32.013)" fill="#2de9ff"/>
</svg>
