<svg xmlns="http://www.w3.org/2000/svg" width="37.084" height="27.816" viewBox="0 0 37.084 27.816">
  <path id="Caminho_39" data-name="Caminho 39" d="M17.494,37.033C17.476,37.068,17.459,37.1,17.494,37.033Zm14.436-5.041a7.6,7.6,0,0,0-3.361.782,7.137,7.137,0,0,1-.753-1.744,4.656,4.656,0,0,1-.064-1.466,12.345,12.345,0,0,1,.44-1.576c-.006-.064-.081-.382-.829-.388s-1.391.145-1.465.342a7.117,7.117,0,0,0-.307,1.107,26.849,26.849,0,0,1-2.265,4.363,4.5,4.5,0,0,1-.516-1.275,4.656,4.656,0,0,1-.064-1.466,12.346,12.346,0,0,1,.44-1.576c-.006-.064-.081-.382-.828-.388s-1.391.145-1.466.342-.156.661-.307,1.107-1.964,4.479-2.438,5.528c-.243.533-.452.962-.6,1.252-.023.046-.041.075-.052.1.017-.029.029-.058.029-.046-.127.249-.2.388-.2.388v.006c-.1.185-.209.353-.261.353a2.4,2.4,0,0,1,.017-1.153c.272-1.4.916-3.581.91-3.656-.006-.041.122-.417-.423-.62a.682.682,0,0,0-.765.127c-.046,0-.081.116-.081.116s.585-2.457-1.124-2.457c-1.066,0-2.55,1.17-3.279,2.231-.458.249-1.449.788-2.492,1.362l-1.2.661c-.029-.029-.052-.058-.081-.087-2.074-2.214-5.9-3.778-5.741-6.751.058-1.084.435-3.929,7.363-7.382,5.679-2.828,10.219-2.051,11-.324,1.124,2.463-2.427,7.046-8.324,7.707a4.439,4.439,0,0,1-3.725-.945c-.307-.342-.353-.359-.469-.3-.191.1-.07.406,0,.585a3.492,3.492,0,0,0,2.132,1.675,11.29,11.29,0,0,0,6.905-.684c3.58-1.379,6.366-5.221,5.549-8.437-.832-3.268-6.251-4.34-11.375-2.521a25.775,25.775,0,0,0-8.73,5.006C.306,24.535-.146,26.835.04,27.8.7,31.21,5.4,33.435,7.286,35.081c-.093.052-.18.1-.261.145-.944.469-4.53,2.347-5.428,4.329-1.014,2.248.168,3.859.944,4.079a5.785,5.785,0,0,0,6.233-2.526,6.274,6.274,0,0,0,.556-5.766c-.006-.017-.017-.029-.023-.046.243-.145.493-.29.742-.435.48-.284.95-.545,1.361-.771a9,9,0,0,0-.487,2.468,5.129,5.129,0,0,0,1.107,3.575,1.216,1.216,0,0,0,.892.29c.8,0,1.159-.661,1.558-1.449.493-.962.927-2.08.927-2.08s-.545,3.025.945,3.025c.544,0,1.089-.7,1.333-1.06v.006s.012-.023.041-.07c.058-.087.087-.139.087-.139v-.017c.22-.377.7-1.24,1.425-2.665.939-1.843,1.836-4.143,1.836-4.143a11.661,11.661,0,0,0,.359,1.495,14,14,0,0,0,.776,1.738c-.22.3-.353.475-.353.475a.018.018,0,0,0,.006.012c-.174.232-.371.481-.574.724a20.453,20.453,0,0,0-1.738,2.179.592.592,0,0,0,.162.794,1.408,1.408,0,0,0,.909.145,4.018,4.018,0,0,0,1.362-.313,4.763,4.763,0,0,0,1.17-.614,2.616,2.616,0,0,0,1.124-2.306,4.8,4.8,0,0,0-.423-1.634c.064-.093.133-.191.2-.29a30.8,30.8,0,0,0,2.033-3.513,11.661,11.661,0,0,0,.359,1.495,10.22,10.22,0,0,0,.66,1.489,6.37,6.37,0,0,0-1.975,2.555c-.429,1.234-.093,1.791.539,1.918a1.944,1.944,0,0,0,.991-.2,4.6,4.6,0,0,0,1.251-.643,2.8,2.8,0,0,0,1.379-2.295,4.311,4.311,0,0,0-.313-1.356,7.073,7.073,0,0,1,3.6-.417c3.226.377,3.858,2.393,3.736,3.233a2.142,2.142,0,0,1-1.026,1.449c-.226.139-.3.191-.278.3.029.151.133.145.324.11a2.517,2.517,0,0,0,1.755-2.242c.093-1.97-1.8-4.137-5.157-4.12ZM7.061,40.377c-1.066,1.165-2.561,1.605-3.2,1.234-.69-.4-.417-2.115.9-3.356a17.169,17.169,0,0,1,2.514-1.877c.156-.093.382-.232.661-.4.046-.029.07-.041.07-.041.052-.035.11-.064.168-.1a4.625,4.625,0,0,1-1.107,4.537Zm7.786-5.3c-.371.91-1.153,3.228-1.628,3.106-.406-.1-.655-1.872-.081-3.61a7.992,7.992,0,0,1,1.269-2.324c.585-.655,1.228-.863,1.379-.6.2.342-.707,2.862-.939,3.43Zm6.432,3.071c-.156.081-.3.133-.371.093-.052-.029.064-.139.064-.139s.805-.863,1.124-1.257c.185-.232.4-.5.631-.805,0,.029.006.058.006.093a2.687,2.687,0,0,1-1.456,2.016Zm4.959-1.13c-.116-.081-.1-.353.29-1.2a4.5,4.5,0,0,1,1.1-1.42,2.1,2.1,0,0,1,.11.626,2.043,2.043,0,0,1-1.5,1.993Z" transform="translate(-0.004 -16.004)" fill="#a2429c"/>
</svg>
