<svg xmlns="http://www.w3.org/2000/svg" width="116" height="82.201" viewBox="0 0 116 82.201">
  <g id="Grupo_68" data-name="Grupo 68" transform="translate(-634 -2172.46)">
    <ellipse id="Elipse_12" data-name="Elipse 12" cx="36.5" cy="34" rx="36.5" ry="34" transform="translate(634 2186.662)" fill="#fff5fe"/>
    <ellipse id="Elipse_11" data-name="Elipse 11" cx="37" cy="34" rx="37" ry="34" transform="translate(676 2184.662)" fill="#c73bbd"/>
    <g id="Grupo_67" data-name="Grupo 67" transform="translate(644.556 2172.46)">
      <g id="Grupo_66" data-name="Grupo 66" transform="translate(0)">
        <path id="Caminho_128" data-name="Caminho 128" d="M24.025-410.187c-3.826,1.02-5.314,2.231-6.909,5.5a17.2,17.2,0,0,0-1.934,9.906c.638,4.273,2.19,8.141,5.442,13.6l2.38,4-.149,1.765a40.589,40.589,0,0,1-.7,4.23,45.584,45.584,0,0,0-.766,4.507,12.812,12.812,0,0,1-.638,3.061,16.089,16.089,0,0,1-4.187,5.228l-1.892,1.637-1.361,3.358c-2.1,5.229-2.359,5.973-2.806,8.4-.212,1.233-.446,2.38-.51,2.551-.128.319,1.361,2.147,2.019,2.508.532.277,1.361-.106,1.85-.829a4.756,4.756,0,0,0,.383-2.359c0-1.637.106-2.019,1-4.23a14.183,14.183,0,0,1,1.53-2.976c1.169-1.212,2.7-1.891,6.5-2.869,2.041-.51,4-1.063,4.358-1.19.532-.191.659-.17.893.128.383.51.34,1.084-.149,3.655a22.813,22.813,0,0,0-.425,3.1c0,1.913,2.38,5.548,6.334,9.692l1.636,1.722,2.529-.063c2.445-.063,2.529-.085,2.955-.617.361-.51.383-.638.128-1.148a2.961,2.961,0,0,0-2.487-1.552c-1.041-.149-1.169-.234-2.891-2.1-1.892-2.041-2.19-2.593-1.956-3.741.17-.893,2.19-3.847,3.89-5.718a11.782,11.782,0,0,0,2.19-3.274c.744-1.594.893-1.785,1.424-1.807,6.781-.191,8.736-.361,9.905-.787l1.212-.446,1.87.532c5.017,1.382,4.613,1.19,4.676,2.1a41.715,41.715,0,0,1-1.467,9.268,10.32,10.32,0,0,0-.617,4.379c0,2.274.043,2.614.446,3.125.426.532.51.552,2.614.552,2.445,0,2.678-.106,2.678-1.3A1.44,1.44,0,0,0,62.391-340a3.74,3.74,0,0,0-1.063-.68c-.872-.277-.361-1.764,2.317-6.887,3.423-6.589,3.869-7.036,6.759-7.036a8.108,8.108,0,0,0,2.636-.361l1-.34,1.361.978c1.488,1.041,2.72,2.317,2.72,2.785,0,.4,1.424,1.658,6.8,5.994,2.508,2.04,5.1,4.144,5.739,4.676a10.126,10.126,0,0,0,2.041,1.381,9.408,9.408,0,0,1,1.828,1.254l.978.85h2.275c2.211,0,2.274-.021,2.891-.617.807-.829.787-1.318-.128-2.125-.68-.6-.893-.659-2.1-.659H97.1l-1.7-1.764c-3.72-3.826-5.42-5.909-6.823-8.375-2.211-3.847-2.125-3.4-2.211-10.394l-.063-6.164.723-1.424a9.585,9.585,0,0,1,3.7-3.847,6.119,6.119,0,0,1,3.125-.766,17.392,17.392,0,0,0,2.317-.3,17.309,17.309,0,0,0,1.169-1.85c.723-1.212.978-1.87.892-2.211a11.345,11.345,0,0,0-1.488-2.189,11.362,11.362,0,0,1-1.53-2.253c-.192-.787-1.956-2.317-3.38-2.912l-1.19-.51.063-2.125c.063-2.083.043-2.125-.4-2.083-.3.043-.489-.085-.532-.318-.063-.277-.723.255-2.529,2.019-2.147,2.1-2.636,2.487-4.442,3.315a14.079,14.079,0,0,0-3.869,2.636,21.64,21.64,0,0,1-3.357,2.468,4.631,4.631,0,0,1-3.209.807,30.961,30.961,0,0,1-4.187-.425c-1.361-.234-3.443-.532-4.613-.659s-4.761-.638-7.971-1.169c-8.863-1.4-9.544-1.488-14.136-1.467a63.1,63.1,0,0,0-8.162.489l-3.912.467-1.148-.6a15.251,15.251,0,0,1-4.591-4.166,32.738,32.738,0,0,1-2.912-10.585c.021-2.317,1.105-5.782,2.19-6.95a6.31,6.31,0,0,1,4.931-1.53,4.872,4.872,0,0,1,2.317,1.467,1.128,1.128,0,0,0,1.934-.192,3.845,3.845,0,0,0,.021-2.954,9.159,9.159,0,0,0-3.082-2.763A8.381,8.381,0,0,0,24.025-410.187Z" transform="translate(-9.987 410.501)" fill="#212121"/>
      </g>
    </g>
  </g>
</svg>
