<svg id="Grupo_4" data-name="Grupo 4"
  xmlns="http://www.w3.org/2000/svg" width="37" height="37" viewBox="0 0 37 37">
  <path id="Caminho_25" data-name="Caminho 25" d="M14.354,28.774l-6.03-18.09c.623-.033,1.245-.1,1.835-.164a.683.683,0,0,0,.655-.786.661.661,0,0,0-.754-.557c-1.605.131-3.048.2-4.391.2H5.145A16.15,16.15,0,0,1,29.069,6.227,2.649,2.649,0,0,0,27,7.9c-.786,2.556.754,4.228,1.476,5.341a8.757,8.757,0,0,1,1.213,4c.164,1.966-.656,4.457-1.18,6.358l-1.7,5.079-6-17.992c.623-.033,1.245-.1,1.836-.164.655-.1.688-.557.655-.786a.639.639,0,0,0-.753-.557,41.764,41.764,0,0,1-4.359.2,42.355,42.355,0,0,1-4.391-.2.684.684,0,0,0-.754.557.706.706,0,0,0,.655.786c.557.065,1.147.131,1.7.164l2.622,7.144ZM34.706,18.517A16.177,16.177,0,0,1,27,32.281l3.77-10.749a51.543,51.543,0,0,0,2.1-6.227,14.548,14.548,0,0,0,.361-3.572,16.178,16.178,0,0,1,1.475,6.784ZM18.517,34.706a15.917,15.917,0,0,1-4.556-.656l4.752-14.255,5.145,13.993a16.207,16.207,0,0,1-5.341.918ZM11.011,32.87A16.218,16.218,0,0,1,2.294,18.517a16.015,16.015,0,0,1,1.212-6.162ZM18.517,0A18.5,18.5,0,1,0,37,18.517,18.518,18.518,0,0,0,18.517,0Z" fill="#0ca3d1" fill-rule="evenodd"/>
</svg>
